<ttFont>
          <CharString index="0">
            rmoveto
            12 -31 -221 -543 -30 -12 -29 -13 -24 -15 263 callgsubr
            272 -1 callgsubr
            44 118 324 callgsubr
            42 -108 301 callgsubr
            -26 166 callgsubr
            315 8 callgsubr
            -71 28 callgsubr
            return
          </CharString>
          <CharString index="1">
            272 646 -106 callgsubr
            return
          </CharString>
          <CharString index="2">
            -71 callsubr
            -104 callsubr
            return
          </CharString>
          <CharString index="3">
            516 -101 callgsubr
            return
          </CharString>
          <CharString index="4">
            rmoveto
            30 -42 -76 callgsubr
            -51 -95 callgsubr
            return
          </CharString>
          <CharString index="5">
            rmoveto
            -17 21 -13 26 -9 28 rrcurveto
            99 21 47 -75 callgsubr
            -257 hlineto
            -41 -78 -97 -32 -69 14 rrcurveto
            return
          </CharString>
          <CharString index="6">
            -84 callsubr
            -38 callgsubr
            17 35 return
          </CharString>
          <CharString index="7">
            29 -175 rlineto
            -27 -23 -40 -14 -56 hhcurveto
            -29 -25 7 13 -17 hvcurveto
            -9 13 -4 16 20 vvcurveto
            60 43 57 72 29 vhcurveto
            15 36 -4 38 -34 59 -30 20 rlinecurve
            -83 -57 -54 -112 -115 vvcurveto
            return
          </CharString>
          <CharString index="8">
            rmoveto
            84 93 42 60 45 hvcurveto
            -24 48 rlineto
            -23 -67 -54 -10 -77 hhcurveto
            -65 -61 18 25 -17 hvcurveto
            15 26 47 25 39 4 140 -23 rcurveline
            9 27 3 49 -6 28 -21 18 rcurveline
            -132 -32 -38 10 -33 21 -9 23 rlinecurve
            32 19 53 19 72 hhcurveto
            63 40 -8 -24 56 hvcurveto
            26 16 5 38 -3 43 -10 30 rlinecurve
            17 -29 -66 12 -72 hhcurveto
            -137 -95 -61 -87 -50 35 -39 57 -16 hvcurveto
            -60 -21 -40 -42 -45 vvcurveto
            -89 88 -61 127 vhcurveto
            return
          </CharString>
          <CharString index="9">
            30 callsubr
            hintmask 01101000
            87 57 56 88 42 39 -12 -22 31 vhcurveto
            -4 -27 rlineto
            -94 -15 -64 -62 -83 hhcurveto
            hintmask 01011000
            -89 callsubr
            hintmask 10011000
            -17 37 -119 -13 79 346 -22 23 -49 17 -44 2 rlinecurve
            -34 -24 -10 -98 rlineto
            hintmask 01101000
            73 -27 -57 45 -67 hhcurveto
            -104 -85 -118 -143 hvcurveto
            hintmask 01011000
            -141 77 -109 101 vhcurveto
            return
          </CharString>
          <CharString index="10">
            1 hlineto
            319 hlineto
            22 68 rlineto
            -90 90 -39 100 122 vvcurveto
            88 27 70 42 38 vhcurveto
            9 24 24 5 25 hhcurveto
            106 72 -95 -139 -113 -40 -89 -84 -86 hvcurveto
            22 -68 rlineto
            319 hlineto
            return
          </CharString>
          <CharString index="11">
            37 20 1 435 rlineto
            177 1 -50 89 -101 hhcurveto
            -67 -54 -48 -82 -28 hvcurveto
            -4 39 -9 30 -14 22 rrcurveto
            25 -16 -21 14 -24 hhcurveto
            -41 -47 -41 -59 -26 hvcurveto
            return
          </CharString>
          <CharString index="12">
            -103 callsubr
            endchar
          </CharString>
          <CharString index="13">
            rmoveto
            8 -10 40 -5 65 1 31 8 rlinecurve
            -20 179 rlineto
            94 23 72 83 68 hhcurveto
            20 14 -3 -10 9 hvcurveto
            3 -4 1 -11 -19 vvcurveto
            return
          </CharString>
          <CharString index="14">
            -211 -72 callgsubr
            323 8 callgsubr
            -93 237 callgsubr
            31 12 29 13 25 16 -6 32 rcurveline
            -307 hlineto
            return
          </CharString>
          <CharString index="15">
            hintmask 01011000
            114 151 -98 callsubr
            return
          </CharString>
          <CharString index="16">
            -89 -105 callgsubr
            return
          </CharString>
          <CharString index="17">
            -4 5 -21 510 -20 hstem
            82 145 150 145 vstem
            62 callgsubr
            return
          </CharString>
          <CharString index="18">
            -31 -26 6 12 -24 hvcurveto
            88 -165 rmoveto
            63 54 43 89 51 hvcurveto
            1 hlineto
            -79 13 39 -53 48 hhcurveto
            41 51 49 54 17 hvcurveto
            return
          </CharString>
          <CharString index="19">
            hintmask 00010110
            118 callgsubr
            hintmask 00011010
            87 57 56 88 42 39 -12 -22 31 vhcurveto
            -4 -27 rlineto
            -94 -15 -64 -62 -83 hhcurveto
            hintmask 00010110
            -89 callsubr
            hintmask 00100110
            -17 37 -119 -13 79 346 -22 23 -49 17 -44 2 rlinecurve
            -34 -24 -10 -98 rlineto
            hintmask 00011010
            73 -27 -57 45 -67 hhcurveto
            -104 -85 -118 -143 hvcurveto
            hintmask 00010110
            -141 77 -109 101 vhcurveto
            return
          </CharString>
          <CharString index="20">
            rmoveto
            -85 callsubr
            return
          </CharString>
          <CharString index="21">
            hlineto
            -86 callgsubr
            return
          </CharString>
          <CharString index="22">
            52 -22 -84 callgsubr
            return
          </CharString>
          <CharString index="23">
            -60 45 rlineto
            return
          </CharString>
          <CharString index="24">
            -80 callsubr
            6 -32 rcurveline
            return
          </CharString>
          <CharString index="25">
            80 -85 95 -106 -70 -68 -41 -48 -48 vhcurveto
            73 -97 58 56 73 37 52 -5 rlinecurve
            10 -8 7 -15 -16 vvcurveto
            -35 -27 -43 -55 -32 vhcurveto
            -42 -3 -46 -17 -33 -28 75 -117 rcurveline
            return
          </CharString>
          <CharString index="26">
            260 -20 rmoveto
            126 110 89 167 167 -112 93 -127 -128 -115 -92 -163 -163 116 -98 130 hvcurveto
            7 82 rmoveto
            -75 -30 83 98 63 11 58 25 33 hvcurveto
            8 12 19 6 20 hhcurveto
            71 28 -86 -101 -62 -9 -68 -38 -27 hvcurveto
            -4 -13 -11 -1 -10 hhcurveto
            return
          </CharString>
          <CharString index="27">
            -30 -12 -30 -13 -25 -16 return
          </CharString>
          <CharString index="28">
            -100 callsubr
            119 callgsubr
            return
          </CharString>
          <CharString index="29">
            47 -67 rlineto
            return
          </CharString>
          <CharString index="30">
            133.5 -133.5 147 217 147 -20 -20 return
          </CharString>
          <CharString index="31">
            74 -72 callsubr
            return
          </CharString>
          <CharString index="32">
            90.5 -90.5 91.5 -91.5 202 return
          </CharString>
          <CharString index="33">
            rmoveto
            63 52 38 70 33 hvcurveto
            -68 28 58 -40 72 hhcurveto
            98 70 92 128 return
          </CharString>
          <CharString index="34">
            -96 callgsubr
            140 callsubr
            return
          </CharString>
          <CharString index="35">
            34 46 67 61 vvcurveto
            40 -25 41 return
          </CharString>
          <CharString index="36">
            39 17 rlineto
            return
          </CharString>
          <CharString index="37">
            -45 17 -29 -51 rlineto
            -19 -48 -102 81 -79 hhcurveto
            -54 -31 248 callsubr
            return
          </CharString>
          <CharString index="38">
            14 -25 callsubr
            return
          </CharString>
          <CharString index="39">
            -92 13 rlineto
            521 -89 callgsubr
            return
          </CharString>
          <CharString index="40">
            68 -24 callsubr
            25 hvcurveto
            -77 vlineto
            return
          </CharString>
          <CharString index="41">
            101 -34 34 return
          </CharString>
          <CharString index="42">
            rmoveto
            31 35 28 32 13 hvcurveto
            -14 29 -60 -13 42 91 rlineto
            return
          </CharString>
          <CharString index="43">
            rmoveto
            111 -193 52 22 -57 232 -38 4 -43 -18 -23 -19 rlinecurve
            return
          </CharString>
          <CharString index="44">
            -46 callsubr
            15 callgsubr
            -61 46 -67 74 -34 vhcurveto
            return
          </CharString>
          <CharString index="45">
            -34 callgsubr
            190 return
          </CharString>
          <CharString index="46">
            88 6 -94 callsubr
            return
          </CharString>
          <CharString index="47">
            142 -142 144 195 31 139 -20 21 -20 return
          </CharString>
          <CharString index="48">
            rmoveto
            57 -16 85 199 -3 28 -25 17 -45 14 -39 -5 rlinecurve
            -133 -234 -77 callgsubr
            return
          </CharString>
          <CharString index="49">
            198 callgsubr
            275 496 callgsubr
            hintmask 01000111
            -88 13 rlineto
            285 vlineto
            -15 123 rlineto
            hintmask 00010111
            316 -485 rlineto
            hintmask 10000111
            141 13 4 586 29 12 28 336 callsubr
            -280 hlineto
            hintmask 10001011
            -1 -51 97 -14 rlineto
            -292 vlineto
            15 -127 rlineto
            hintmask 10000111
            -309 483 1 1 rlineto
            -222 hlineto
            hintmask 00101011
            -1 -51 70 233 callgsubr
            return
          </CharString>
          <CharString index="50">
            -17 -34 rlineto
            return
          </CharString>
          <CharString index="51">
            247 -20 -79 callgsubr
            return
          </CharString>
          <CharString index="52">
            -326 -6 callgsubr
            return
          </CharString>
          <CharString index="53">
            -76 -12 -98 -68 -330 vhcurveto
            -19 34 42 -10 49 hhcurveto
            return
          </CharString>
          <CharString index="54">
            76 0 55 199.5 76.5 271.5 480 callgsubr
            111 152 199 157 hintmask 11101100
            402 588 rmoveto
            41 -28 19 -49 -51 vvcurveto
            -67 -32 -62 -102 -18 -23 2 5 -24 vhcurveto
            235 vlineto
            -237 -541 198 callgsubr
            320 8 callgsubr
            -90 13 rlineto
            190 vlineto
            83 1 136 -255 rlineto
            200 8 callgsubr
            -64 8 -134 218 rlineto
            84 35 50 74 77 vvcurveto
            107 -95 96 -167 vhcurveto
            hintmask 11011100
            -319 -8 rlineto
            hintmask 11101100
            -1 -51 74 493 callgsubr
            -28 callsubr
            return
          </CharString>
          <CharString index="55">
            -61 11 -51 -8 -39 -19 rrcurveto
            -39 callsubr
            return
          </CharString>
          <CharString index="56">
            rmoveto
            84 hlineto
            hintmask 10101000
            31 126 223 14 -377 -514 40 -68 -1 -1 rlineto
            1 hlineto
            497 1 13 75 9 63 4 72 rlinecurve
            -90 13 -46 -129 -240 -6 rlineto
            hintmask 10011000
            369 503 rlineto
            hintmask 10101000
            -33 67 rlineto
            -492 hlineto
            hintmask 11001000
            -5 -55 1 -93 12 -68 rrcurveto
            return
          </CharString>
          <CharString index="57">
            48 callsubr
            215 -524 -86 callsubr
            return
          </CharString>
          <CharString index="58">
            -83 callsubr
            151 callgsubr
            return
          </CharString>
          <CharString index="59">
            -53 callgsubr
            -9 rlineto
            return
          </CharString>
          <CharString index="60">
            103 37 136 146 116 -69 69 58 615 callgsubr
            -116 416 callsubr
            160 callgsubr
            505 -103 hlineto
            hintmask 1101100100000000
            -310 hlineto
            hintmask 1011100100000000
            90 callgsubr
            hintmask 1101101010000000
            91 56 203 callsubr
            133 -305 -86 callsubr
            -749 hlineto
            return
          </CharString>
          <CharString index="61">
            -52 callgsubr
            -51 -13 return
          </CharString>
          <CharString index="62">
            -91 -85 -108 -207 -38 hvcurveto
            -1 hlineto
            -8 106 rlineto
            144 -49 -62 65 -87 hhcurveto
            -47 -52 -20 -30 -42 hvcurveto
            return
          </CharString>
          <CharString index="63">
            -22 17 -17 21 25 vvcurveto
            40 39 27 37 -13 vhcurveto
            18 -16 9 -24 -23 vvcurveto
            return
          </CharString>
          <CharString index="64">
            112 -515 rmoveto
            21 20 4 6 18 hvcurveto
            47 -209 133 53 -104 194 27 20 26 28 12 26 rlinecurve
            -99 115 -89 -39 11 -59 -46 -25 -62 -8 -47 19 rlinecurve
            -11 18 -5 15 18 vvcurveto
            50 42 return
          </CharString>
          <CharString index="65">
            131 callsubr
            -92 vlineto
            96 -54 -71 callsubr
            return
          </CharString>
          <CharString index="66">
            rmoveto
            56 30 41 90 14 hvcurveto
            return
          </CharString>
          <CharString index="67">
            -78 callsubr
            201 hlineto
            1 -158 rlineto
            -12 -2 -11 -3 -10 vhcurveto
            -127 hlineto
            -30 -70 return
          </CharString>
          <CharString index="68">
            -40 callgsubr
            219 callgsubr
            return
          </CharString>
          <CharString index="69">
            30 41 -37 32 -18 22 -3 31 rlinecurve
            return
          </CharString>
          <CharString index="70">
            48 -31 22 -28 -31 vvcurveto
            return
          </CharString>
          <CharString index="71">
            30 callgsubr
            -27 -24 -31 -14 -33 hhcurveto
            -29 -24 13 21 -14 hvcurveto
            return
          </CharString>
          <CharString index="72">
            111 193 -2 28 -23 18 -43 428 callgsubr
            return
          </CharString>
          <CharString index="73">
            17 35 -48 66 rlineto
            return
          </CharString>
          <CharString index="74">
            618 callsubr
            75 512 callgsubr
            207 callsubr
          </CharString>
          <CharString index="75">
            48 -67 rlineto
            82 -190 hlineto
            -42 -37 -86 -10 -65 53 rrcurveto
            40 36 20 46 39 vvcurveto
            return
          </CharString>
          <CharString index="76">
            36 31 45 91 57 hvcurveto
            -39 34 -86 -71 rlineto
            55 -107 -64 33 -32 hhcurveto
            -38 -36 -50 -81 -53 hvcurveto
            47 -36 rlineto
            37 35 26 24 19 36 120 -81 48 hhcurveto
            return
          </CharString>
          <CharString index="77">
            -48 56 55 89 132 -21 18 35 rcurveline
            -61 88 return
          </CharString>
          <CharString index="78">
            -16 callsubr
            -17 return
          </CharString>
          <CharString index="79">
            -80 callsubr
            rrcurveto
            return
          </CharString>
          <CharString index="80">
            -11 callsubr
            hintmask 0011110100000000
            -81 callgsubr
            hintmask 1000110100000000
            6 -74 rlineto
            return
          </CharString>
          <CharString index="81">
            198 callgsubr
            322 -1 callgsubr
            rlineto
            return
          </CharString>
          <CharString index="82">
            rmoveto
            -15 callsubr
            return
          </CharString>
          <CharString index="83">
            -9 callsubr
            -11 return
          </CharString>
          <CharString index="84">
            -47 callgsubr
            -82.5 205 callgsubr
            hintmask 0011110010000000
            -61 callsubr
            hintmask 0101110010000000
            -54 callsubr
            hintmask 0011110010000000
            -96 callsubr
            hintmask 1000101010000000
            120 callsubr
            43 -598 -27 callsubr
            hintmask 1000101010000000
            28 callsubr
            return
          </CharString>
          <CharString index="85">
            -78 callsubr
            405 -55 -146 hlineto
            -121 -56 -58 -61 -80 97 -91 127 -34 hvcurveto
            165 52 rlineto
            -64 11 -66 -58 -90 hhcurveto
            -94 -87 59 105 -67 hvcurveto
            -60 -46 rlineto
            return
          </CharString>
          <CharString index="86">
            19 -46 99 12 rlineto
            -32 -110 -7 -33 -45 vvcurveto
            return
          </CharString>
          <CharString index="87">
            70 callsubr
            endchar
          </CharString>
          <CharString index="88">
            -29 callsubr
            -46 return
          </CharString>
          <CharString index="89">
            51 40 -6 41 -24 32 -37 117 callsubr
            74 -34 vhcurveto
            endchar
          </CharString>
          <CharString index="90">
            -69 16 -59 -11 -41 -28 rrcurveto
            -29 22 -11 17 20 vvcurveto
            39 42 13 45 vhcurveto
            84 hlineto
            18 33 -58 86 rlineto
            -95 hlineto
            -109 -45 -61 -61 return
          </CharString>
          <CharString index="91">
            -11 callgsubr
            -43 -42 -21 -113 -14 vhcurveto
            return
          </CharString>
          <CharString index="92">
            -27 callgsubr
            -84 callsubr
            return
          </CharString>
          <CharString index="93">
            83 callsubr
            endchar
          </CharString>
          <CharString index="94">
            rmoveto
            36 18 24 28 11 38 -8 35 -37 34 244 callgsubr
            -37 28 -22 603 callsubr
          </CharString>
          <CharString index="95">
            rmoveto
            25 14 20 21 21 -14 21 -25 -27 -13 -21 -21 -21 13 -20 27 hvcurveto
            return
          </CharString>
          <CharString index="96">
            rmoveto
            29 33 27 31 13 hvcurveto
            return
          </CharString>
          <CharString index="97">
            -31 -16 105 346 243 569 callsubr
            hintmask 10110000
            368 -16 rmoveto
            205 88 -24 71 -165 -54 rlineto
            -142 -5 -73 116 145 vvcurveto
            90 28 102 70 53 vhcurveto
            57 50 -11 -19 44 hvcurveto
            hintmask 11010000
            24 -125 rlineto
            92 hlineto
            hintmask 10110000
            17 56 8 84 -3 40 rrcurveto
            28 -40 -66 35 -100 hhcurveto
            -227 -109 -180 -177 -166 94 -179 260 8 hvcurveto
            return
          </CharString>
          <CharString index="98">
            -47 41 92 91 hhcurveto
            24 23 -6 return
          </CharString>
          <CharString index="99">
            -69 vlineto
            -19 callgsubr
            return
          </CharString>
          <CharString index="100">
            520 callgsubr
            hintmask 1010010001000000
            0 callsubr
            hintmask 0110100001000000
            65 callsubr
            hintmask 1010100001000000
            61 callsubr
            hintmask 1010100000100000
            201 callgsubr
            hintmask 1010100001000000
            -2 callgsubr
            hintmask 1011000001000000
            17 -99 rlineto
            84 hlineto
            return
          </CharString>
          <CharString index="101">
            rmoveto
            52 -45 31 96 93 hhcurveto
            22 23 -5 -11 24 hvcurveto
            -82 vlineto
            -33 -49 -64 -17 -51 16 rrcurveto
            95 -98 336 callgsubr
            -45 -64 -23 -73 hhcurveto
            -93 -99 43 86 -54 hvcurveto
            hintmask 1100110101000000
            46 40 96 callsubr
            363 -122 hlineto
            -89 52 rlineto
            hintmask 1110010111000000
            -115 24 -78 -85 -86 vvcurveto
            -112 129 -82 100 vhcurveto
            -118 -165 rmoveto
            64 64 15 32 52 hvcurveto
            87 -49 -71 callsubr
            hintmask 1101010101000000
            516 237 callsubr
            rlineto
            hintmask 1110010111000000
            -199 82 177 -116 167 hhcurveto
            endchar
          </CharString>
          <CharString index="102">
            6 -74 rlineto
            28 callsubr
            return
          </CharString>
          <CharString index="103">
            hhcurveto
            1 callgsubr
            return
          </CharString>
          <CharString index="104">
            vlineto
            -86 callgsubr
            return
          </CharString>
          <CharString index="105">
            10 -20 -23 5 -23 hhcurveto
            -78 -86 -58 -109 return
          </CharString>
          <CharString index="106">
            202 callgsubr
            -13 -20 549 callgsubr
            hintmask 01010110
            27 hmoveto
            -97 callsubr
            hintmask 00110110
            18 callgsubr
            hintmask 10010110
            -82 callgsubr
            hintmask 01010110
            -25 callgsubr
            hintmask 00110110
            165 callsubr
            hintmask 01010110
            98 callgsubr
            return
          </CharString>
          <CharString index="107">
            37 607 -61 callgsubr
            return
          </CharString>
          <CharString index="108">
            rmoveto
            178 -159 51 54 -137 130 rlineto
            51 -54 -36 17 -42 hhcurveto
            -42 -45 -17 -40 -50 hvcurveto
            82 -83 rlineto
            endchar
          </CharString>
          <CharString index="109">
            115 97 103 -87 87 176 -20 65 101 -87 98 -45 34 return
          </CharString>
          <CharString index="110">
            rmoveto
            142 -151 110 2 128 165 -66 56 -114 -139 -121 138 rlineto
            endchar
          </CharString>
          <CharString index="111">
            -30 callsubr
            rlineto
            return
          </CharString>
          <CharString index="112">
            52 40 -7 41 -23 32 -38 117 callsubr
            75 -34 vhcurveto
            return
          </CharString>
          <CharString index="113">
            -70 callgsubr
            endchar
          </CharString>
          <CharString index="114">
            244 callsubr
            106 -85 94 -100 -43 -38 -17 -26 -33 vhcurveto
            106 vlineto
            -84 callsubr
            413 hlineto
            17 35 -47 66 rlineto
            return
          </CharString>
          <CharString index="115">
            -169 414 82 0 -20 hstemhm
            14 142 hintmask 01100000
            290 -14 rmoveto
            142 75 -21 50 rlineto
            -18 -38 -37 -9 -33 hhcurveto
            -95 -52 75 103 hvcurveto
            hintmask 10100000
            51 14 58 39 43 vhcurveto
            46 -15 42 -37 36 -49 109 75 rcurveline
            72 -32 -72 36 -79 hhcurveto
            -139 -106 -104 -155 hvcurveto
            hintmask 01100000
            -161 120 -106 156 16 vhcurveto
            return
          </CharString>
          <CharString index="116">
            144 callsubr
            7 callsubr
            return
          </CharString>
          <CharString index="117">
            340 0 47 -47 650 -636 -21 593 64 -47 47 -32 32 hstemhm
            122 105.5 460 143 hintmask 10000111
            348 callgsubr
            276 hlineto
            1 47 -84 17 5 278 -16 166 rlineto
            hintmask 00100111
            186 -515 115 23 185 497 -14 -171 rlineto
            hintmask 10000111
            3 -269 -80 callsubr
            rlinecurve
            6 -32 rlineto
            318 hlineto
            1 47 -94 19 -9 512 30 12 28 336 callsubr
            -233 hlineto
            -181 -494 rlineto
            hintmask 01000011
            -177 493 1 1 rlineto
            -264 hlineto
            hintmask 10001011
            -1 -47 rlineto
            hintmask 10010011
            82 -17 -14 -511 rlineto
            hintmask 10000111
            -32 -13 -31 -14 -26 -16 rrcurveto
            endchar
          </CharString>
          <CharString index="118">
            rmoveto
            79 70 49 104 8 hvcurveto
            -99 5 rlineto
            -51 -4 -28 -23 -34 hhcurveto
            -35 -27 25 50 -6 hvcurveto
            -89 -8 rlineto
            -98 12 70 -53 83 hhcurveto
            return
          </CharString>
          <CharString index="119">
            -18 21 -15 27 -10 27 rrcurveto
            125 30 65 79 80 vvcurveto
            return
          </CharString>
          <CharString index="120">
            -18 -28 -32 107 callsubr
            return
          </CharString>
          <CharString index="121">
            rmoveto
            79 72 55 89 85 -79 118 -142 245 callgsubr
            hvcurveto
            -99 102 26 callgsubr
            hintmask 0110110101000000
            269 callgsubr
            439 -37 callgsubr
            -712 hlineto
            hintmask 0111001101000000
            -57 callsubr
            hintmask 0111010101000000
            -40 callsubr
            rlineto
            hintmask 1011010111000000
            209 callsubr
            endchar
          </CharString>
          <CharString index="122">
            -63 callsubr
            endchar
          </CharString>
          <CharString index="123">
            rmoveto
            38 44 56 87 46 hvcurveto
            -48 35 -79 -82 rlineto
            40 -55 -76 50 -28 hhcurveto
            -46 -34 -40 -100 -60 hvcurveto
            50 -39 rlineto
            52 43 24 24 18 34 82 -83 47 hhcurveto
            return
          </CharString>
          <CharString index="124">
            rmoveto
            -67 callsubr
            106 callsubr
            return
          </CharString>
          <CharString index="125">
            168 216 callsubr
            211 hlineto
            17 35 -47 66 rlineto
            -626 hlineto
            endchar
          </CharString>
          <CharString index="126">
            188 0 23 callgsubr
            hstemhm
            111 348 callsubr
            hintmask 10001110
            -5 callgsubr
            hintmask 01001110
            246 callgsubr
            hintmask 10001110
            -93 callsubr
            hintmask 10010110
            -1 -51 rlineto
            hintmask 10100110
            164 callsubr
            hintmask 10001110
            -18 callgsubr
            hintmask 10010110
            -1 -51 rlineto
            hintmask 10100110
            22 callsubr
            hintmask 10001110
            248 callgsubr
          </CharString>
          <CharString index="127">
            11 619 callsubr
            54 123 65 163 callgsubr
            hintmask 11110110
            189 285 -36 callsubr
            hintmask 11101110
            -237 320 rmoveto
            hintmask 11110110
            351 callgsubr
            233 vlineto
            55 48 51 40 37 381 callsubr
            65 60 rlineto
            59 -29 -60 43 -62 -4 callsubr
            267 hlineto
            17 35 -47 66 rlineto
            -687 hlineto
            return
          </CharString>
          <CharString index="128">
            52 0 81 229 66 -66 356 -93 93 -78 78 103 callgsubr
            188 154 -129 161 hintmask 11001110
            372 588 rmoveto
            47 -11 32 -50 -46 vvcurveto
            -53 -40 -52 -102 vhcurveto
            -46 hlineto
            hintmask 10010101
            197 vlineto
            -237 -541 198 callgsubr
            329 hlineto
            197 79 89 93 78 -55 70 -104 19 hvcurveto
            hintmask 10100110
            88 17 39 70 61 vvcurveto
            84 -78 85 -174 -86 -135 -3 -5 -91 vhcurveto
            -1 -51 71 493 callgsubr
            hintmask 10010101
            -28 callsubr
            317 45 rmoveto
            -80 8 rlineto
            hintmask 10100101
            225 82 vlineto
            84 47 -66 -60 hvcurveto
            hintmask 10010101
            -58 -42 -57 -91 8 vhcurveto
            endchar
          </CharString>
          <CharString index="129">
            77 31 callgsubr
            return
          </CharString>
          <CharString index="130">
            -4 -58 175 callsubr
            hintmask 11001101
            -20 callgsubr
            hintmask 11010110
            138 callsubr
            hintmask 11010101
            7 callgsubr
            hintmask 11010110
            238 hlineto
            hintmask 10110110
            60 callsubr
            -642 hlineto
            return
          </CharString>
          <CharString index="131">
            -79 callgsubr
            endchar
          </CharString>
          <CharString index="132">
            -87 -105 callgsubr
            return
          </CharString>
          <CharString index="133">
            -11 callsubr
            hintmask 01010110
            -81 callgsubr
            hintmask 10010110
            -5 callsubr
            return
          </CharString>
          <CharString index="134">
            296 callsubr
            -47 66 rlineto
            return
          </CharString>
          <CharString index="135">
            -61 7 23 -37 38 hhcurveto
            return
          </CharString>
          <CharString index="136">
            52 39 -7 42 -23 32 -38 16 rlinecurve
            449 callsubr
            return
          </CharString>
          <CharString index="137">
            rmoveto
            -7 13 -3 20 23 vvcurveto
            return
          </CharString>
          <CharString index="138">
            103 0 51 -51 52 -52 63 -63 73 534 255 callgsubr
            hintmask 10000110
            348 callgsubr
            314 496 callgsubr
            hintmask 00100110
            -84 12 rlineto
            180 vlineto
            41 43 rlineto
            hintmask 10000110
            204 -286 rlineto
            201 hlineto
            hintmask 01000110
            1 52 -62 10 -245 329 187 198 29 11 32 12 22 14 497 callgsubr
            -248 hlineto
            hintmask 10001010
            -1 -51 66 -10 -221 -236 rlineto
            hintmask 10000110
            224 vlineto
            30 12 29 14 25 15 -6 32 rcurveline
            -307 hlineto
            hintmask 00011010
            -1 -51 78 31 callgsubr
            hintmask 10000110
            248 callgsubr
          </CharString>
          <CharString index="139">
            124 66 81 76 80 -72 97 -105 -69 -55 -44 -69 -22 6 -24 13 -24 hvcurveto
            58 -39 rlineto
            -4 -3 0 -4 hhcurveto
            -45 -41 12 16 -37 hvcurveto
            -34 33 -17 41 38 vvcurveto
            64 47 63 96 vhcurveto
            return
          </CharString>
          <CharString index="140">
            rmoveto
            59 -50 49 92 83 hhcurveto
            31 36 -15 -26 14 hvcurveto
            10 -79 -93 -65 -80 34 rrcurveto
            return
          </CharString>
          <CharString index="141">
            -20 144 235 132 0 -20 return
          </CharString>
          <CharString index="142">
            rmoveto
            30 -41 rlineto
            115 callgsubr
            -2 111 callsubr
          </CharString>
          <CharString index="143">
            -54 22 rlinecurve
            -33 25 -14 37 30 vvcurveto
            52 40 56 93 vhcurveto
            171 216 callsubr
            return
          </CharString>
          <CharString index="144">
            33 0 51 -51 63 -63 72 530.5 55.5 364 callsubr
            hstemhm
            249 148 hintmask 10010010
            -2 607 rmoveto
            63 -9 188 -351 rlineto
            hintmask 00110010
            -175 vlineto
            hintmask 10010010
            388 callsubr
            6 -32 rcurveline
            305 496 callgsubr
            hintmask 01000110
            -83 12 rlineto
            200 vlineto
            175 324 28 12 27 12 24 15 rlinecurve
            hintmask 10010010
            -6 32 rlineto
            -244 hlineto
            hintmask 10001010
            -1 -51 74 -11 -131 -261 rlineto
            -6 hlineto
            -27 85 rlineto
            hintmask 10000110
            412 callgsubr
            hintmask 10010010
            521 callsubr
            return
          </CharString>
          <CharString index="145">
            -78 callsubr
            592 139 callgsubr
            16 -10 17 -8 17 -7 -104 -52 rcurveline
            -66 101 rlineto
            58 -36 -77 44 -74 hhcurveto
            -78 -63 -47 -70 -73 66 -49 105 -10 hvcurveto
            18 58 rlineto
            -49 10 -21 27 29 vvcurveto
            19 10 19 19 10 vhcurveto
            return
          </CharString>
          <CharString index="146">
            -74 callsubr
            hvcurveto
            hintmask 01110111
            -87 callgsubr
            hintmask 10101111
            -79 callsubr
            return
          </CharString>
          <CharString index="147">
            hintmask 10101001
            45 -70 rlineto
            87 hlineto
            -17 -28 -7 -28 -30 vvcurveto
            -107 98 -72 91 39 31 13 38 89 vhcurveto
            10 -36 -38 -54 -43 -40 118 -62 rcurveline
            124 131 -110 173 -112 hhcurveto
            -45 -56 -27 -33 -83 hvcurveto
            -24 49 29 84 52 36 rrcurveto
            214 hlineto
            17 34 -48 81 rlineto
            hintmask 00101100
            -224 hlineto
            -22 23 -11 28 20 vvcurveto
            46 48 28 69 vhcurveto
            hintmask 00101010
            47 50 -14 -25 50 hvcurveto
            2 120 rlineto
            28 -55 -61 13 -57 hhcurveto
            hintmask 01001100
            -129 -78 -69 -82 -41 20 -45 40 -41 hvcurveto
            -140 hlineto
            endchar
          </CharString>
          <CharString index="148">
            76 47 46 64 31 30 -10 -21 28 vhcurveto
            21 60 rlineto
            54 -34 -48 25 -50 hhcurveto
            -62 -63 -39 -73 -21 hvcurveto
            -2 6 -74 225 -126 47 -152 -67 rlinecurve
            53 -133 rlineto
            return
          </CharString>
          <CharString index="149">
            192 -20 -74 callsubr
            hvcurveto
            return
          </CharString>
          <CharString index="150">
            -55 callsubr
            245 111 hstemhm
            35 122 -77 -85 callgsubr
            -123 hlineto
            -8 18 -1 12 12 vvcurveto
            138 202 65 319 382 538 -91 -127 496 vhcurveto
            24 67 rlineto
            184 -646 -549 78 -336 hhcurveto
            -381 -171 -98 -138 -31 9 -39 39 -50 hvcurveto
            -114 -45 callgsubr
          </CharString>
          <CharString index="151">
            53 rlineto
            -76 -15 -40 -36 -54 hhcurveto
            -52 -46 33 80 -42 hvcurveto
            -58 -50 rlineto
            -116 55 91 -58 88 hhcurveto
            endchar
          </CharString>
          <CharString index="152">
            89 176 -188 -105 callgsubr
            return
          </CharString>
          <CharString index="153">
            hintmask 01001100
            17 471 callgsubr
            267 hlineto
            hintmask 10001100
            4 49 rlineto
            hintmask 00101100
            -16 10 -19 8 -20 7 rrcurveto
            117 vlineto
            44 3 rlineto
            hintmask 00011100
            87 -141 20 -31 14 -19 23 -12 rlinecurve
            162 30 -9 54 -40 -3 -22 4 -27 39 rlinecurve
            -93 136 150 181 -40 62 -61 -2 -78 -13 -58 -20 rlinecurve
            7 -48 70 -4 -112 -140 -37 -24 rlineto
            449 271 callgsubr
            hintmask 01001100
            -579 466 callsubr
            rrcurveto
            return
          </CharString>
          <CharString index="154">
            415 callsubr
            154 -524 -86 callsubr
            return
          </CharString>
          <CharString index="155">
            43 -18 34 -2 28 10 rrcurveto
            -206 vlineto
            -15 callsubr
            return
          </CharString>
          <CharString index="156">
            428 callsubr
            -291 575 callsubr
            45 -262 hlineto
            -47 -73 -93 -35 -73 12 -18 21 -15 29 -11 30 rrcurveto
            125 29 66 80 210 callsubr
          </CharString>
          <CharString index="157">
            rmoveto
            -33 -27 23 35 33 25 25 33 33 25 -25 -34 -34 -23 -23 -33 hvcurveto
            2 -46 rmoveto
            67 47 48 67 71 -52 51 -67 -67 -50 -52 -67 -71 55 -47 67 hvcurveto
            return
          </CharString>
          <CharString index="158">
            -7 callgsubr
            274 callsubr
            return
          </CharString>
          <CharString index="159">
            -72 5 -21 187 56.5 193.5 78 return
          </CharString>
          <CharString index="160">
            hintmask 01010000
            15 425 callgsubr
            hintmask 10010000
            4 49 rlineto
            hintmask 00110000
            240 callgsubr
            hintmask 01010000
            -578 423 callgsubr
            return
          </CharString>
          <CharString index="161">
            -67 callgsubr
            22 callgsubr
            return
          </CharString>
          <CharString index="162">
            181 callgsubr
            30 34 -8 -17 34 vhcurveto
            268 callsubr
            return
          </CharString>
          <CharString index="163">
            vlineto
            96 -54 39 17 rlineto
            516 273 callgsubr
            return
          </CharString>
          <CharString index="164">
            90 0 83 490 93 -78 78 103 callgsubr
            269 160 hintmask 10111000
            408 588 rmoveto
            74 -44 50 -106 -110 vvcurveto
            -121 -61 -124 -132 -23 -26 4 8 -27 vhcurveto
            hintmask 11011000
            478 vlineto
            -237 -541 506 callgsubr
            hvcurveto
            hintmask 10111000
            162 -115 170 -215 -108 -105 -2 -6 -108 vhcurveto
            -1 -51 71 493 callgsubr
            hintmask 11011000
            -28 callsubr
            return
          </CharString>
          <CharString index="165">
            -125 144 -86 100 vhcurveto
            endchar
          </CharString>
          <CharString index="166">
            71 52 106 48 63 2 rrcurveto
            20 -16 12 -31 -25 vvcurveto
            -55 -59 -70 -105 -19 vhcurveto
            -54 56 -42 -9 -44 -137 26 -20 59 -14 46 -2 rlinecurve
            226 -164 58 48 rlineto
            36 vlineto
            -155 101 rlineto
            113 40 56 84 79 vvcurveto
            return
          </CharString>
          <CharString index="167">
            119 callsubr
            187 -37 callgsubr
            return
          </CharString>
          <CharString index="168">
            -33 -109 -187 -13 496 callsubr
            return
          </CharString>
          <CharString index="169">
            172 95 218 87 callsubr
            41 129 -53 117 111 129 hintmask 1111100110000000
            130 callsubr
            hintmask 1111010110000000
            -311 778 rmoveto
            hintmask 1111101010000000
            47 -67 rlineto
            346 -99 -77 213 callgsubr
            hintmask 1111100110000000
            -43 -26 -30 -42 -50 vvcurveto
            return
          </CharString>
          <CharString index="170">
            24 12 -21 502 186 callgsubr
            hintmask 11011100
            -48 605 rmoveto
            hintmask 11101100
            304 callsubr
            -311 hlineto
            -313 -236 95 -72 218 171 rlineto
            -76 -105 callgsubr
            -671 hlineto
            return
          </CharString>
          <CharString index="171">
            65 83 27 74 59 hvcurveto
            -81 109 -65 -76 -124 -33 -82 34 rlinecurve
            -25 24 -14 29 29 vvcurveto
            52 40 45 85 vhcurveto
            163 141 callgsubr
            return
          </CharString>
          <CharString index="172">
            8 54 6 89 -2 56 -84 6 rcurveline
            return
          </CharString>
          <CharString index="173">
            -229 538 396 callsubr
            194 125 hintmask 01100000
            -48 605 rmoveto
            hintmask 10100000
            461 callgsubr
            -17 -46 rlineto
            383 callgsubr
            80 75 41 64 41 hvcurveto
            -74 112 -49 -83 -111 -39 -79 11 rlinecurve
            212 callsubr
            235 hlineto
            17 35 -47 66 rlineto
            -465 hlineto
            return
          </CharString>
          <CharString index="174">
            414 callgsubr
            -13 -20 hstemhm
            14 520 callsubr
            hintmask 11011000
            342 -20 -103 callgsubr
            return
          </CharString>
          <CharString index="175">
            135 52 57 -33 52 -137 58 -152 rcurveline
            -102 121 -99 118 -94 21 -118 -86 rlinecurve
            66 -115 89 56 62 10 67 -69 rlinecurve
            return
          </CharString>
          <CharString index="176">
            -143 66 105 -69 106 hhcurveto
            33 30 9 19 28 hvcurveto
            -73 134 callgsubr
            return
          </CharString>
          <CharString index="177">
            -94 callsubr
            hintmask 10110100
            -54 callsubr
            hintmask 01110100
            -96 callsubr
            hintmask 01101100
            120 callsubr
            return
          </CharString>
          <CharString index="178">
            -17 callgsubr
            endchar
          </CharString>
          <CharString index="179">
            -91 34 callsubr
            return
          </CharString>
          <CharString index="180">
            12 -26 9 -26 8 rlinecurve
            219 vlineto
            149 callsubr
            return
          </CharString>
          <CharString index="181">
            hlineto
            -166 -61 -99 -88 -91 65 -79 77 -45 hvcurveto
            return
          </CharString>
          <CharString index="182">
            rmoveto
            -7 hlineto
            2 -48 rlineto
            33 hlineto
            44 22 -25 -25 -14 -7 -15 -15 -9 hvcurveto
            -36 7 -48 26 -38 28 -23 -85 rcurveline
            -18 39 47 -8 38 hhcurveto
            69 64 30 64 43 -30 33 -40 6 hvcurveto
            2 vlineto
            hintmask 11101000
            375 callsubr
            hintmask 11110000
            312 callsubr
            hintmask 11101000
            269 callsubr
            endchar
          </CharString>
          <CharString index="183">
            -132 239.5 75 105.5 76 hstem
            14 139 vstem
            298 -13 rmoveto
            157 81 -21 53 rlineto
            -23 -47 -40 -13 -41 hhcurveto
            -84 -64 55 101 -5 hvcurveto
            255 -3 58 58 rlineto
            135 1 -105 65 -101 hhcurveto
            -136 -111 -115 -150 -153 120 -107 164 16 hvcurveto
            -72 433 rmoveto
            55 42 -45 -56 9 hvcurveto
            -173 -9 9 45 22 44 36 21 rlinecurve
            return
          </CharString>
          <CharString index="184">
            -1 48 rlineto
            -309 hlineto
            -6 -34 31 -17 36 -16 33 -12 rlinecurve
            -138 vlineto
            -29 -5 -31 -4 -27 1 rrcurveto
            -137 3 -67 125 130 vvcurveto
            101 31 101 73 52 vhcurveto
            74 4 61 -15 48 -20 rrcurveto
            return
          </CharString>
          <CharString index="185">
            16 -38 -21 -30 -32 -6 -45 18 -36 28 -23 42 -12 rrcurveto
            return
          </CharString>
          <CharString index="186">
            29 -20 51 2 56 14 25 16 rlinecurve
            -76 273 rlineto
            -62 40 55 -39 57 hhcurveto
            116 101 123 148 146 -90 100 -132 -131 -91 -108 -156 -78 -1 -52 -3 -100 hvcurveto
            endchar
          </CharString>
          <CharString index="187">
            -31 -18 -22 -37 -32 rrcurveto
            return
          </CharString>
          <CharString index="188">
            47 callgsubr
            endchar
          </CharString>
          <CharString index="189">
            rmoveto
            58 -46 121 112 133 -108 52 49 -129 150 rlineto
            -105 hlineto
            return
          </CharString>
          <CharString index="190">
            257 callgsubr
            -73 -52 -51 -59 472 callgsubr
            hvcurveto
            47 38 rlineto
            0 callgsubr
            return
          </CharString>
          <CharString index="191">
            92 154 99 21 90 callsubr
            21 114 168 135 return
          </CharString>
          <CharString index="192">
            rmoveto
            18 -35 60 24 rlineto
            -196 vlineto
            -23 -7 -26 -12 -15 -10 3 -15 rcurveline
            210 hlineto
            1 27 rlineto
            return
          </CharString>
          <CharString index="193">
            hlineto
            -32 -48 24 -71 89 -79 69 -28 rlinecurve
            return
          </CharString>
          <CharString index="194">
            127 54 -98 callgsubr
            return
          </CharString>
          <CharString index="195">
            -61 callgsubr
            hintmask 01101010
            65 callsubr
            hintmask 10101010
            61 callsubr
            hintmask 10101001
            201 callgsubr
            hintmask 10101010
            -2 callgsubr
            hintmask 10110010
            17 -99 rlineto
            84 hlineto
            hintmask 10101010
            -15 callgsubr
            endchar
          </CharString>
          <CharString index="196">
            -57 callgsubr
            -13 -20 21 -20 hstemhm
            return
          </CharString>
          <CharString index="197">
            228 callgsubr
            201 132 return
          </CharString>
          <CharString index="198">
            131 176 135 return
          </CharString>
          <CharString index="199">
            -90 -35 14 -87 -46 -24 -60 -10 36 callsubr
            209 -37 callgsubr
            return
          </CharString>
          <CharString index="200">
            61 callgsubr
            57 48 50 43 38 hhcurveto
            return
          </CharString>
          <CharString index="201">
            121 -19 91 535 51 -32 32 hstemhm
            85 152 299 108 hintmask 10111000
            return
          </CharString>
          <CharString index="202">
            68 46 45 58 25 27 -8 -18 25 vhcurveto
            21 60 rlineto
            47 -35 -49 22 -48 hhcurveto
            return
          </CharString>
          <CharString index="203">
            rlineto
            50 41 29 33 63 vvcurveto
            127 vlineto
            -60 44 rlineto
            return
          </CharString>
          <CharString index="204">
            -32 25 -15 37 31 vvcurveto
            54 41 58 95 vhcurveto
            return
          </CharString>
          <CharString index="205">
            18 -72 63 -88 64 -41 rrcurveto
            return
          </CharString>
          <CharString index="206">
            -78 callsubr
            576 479 callsubr
            -115 100 -94 106 -41 hvcurveto
            -74 -31 -73 -49 -54 hhcurveto
            -43 29 36 59 77 11 1 34 rcurveline
            -101 63 -43 -10 -36 -23 -21 -31 rlinecurve
            -44 13 -21 28 30 vvcurveto
            24 14 26 36 14 vhcurveto
            22 -10 28 -23 25 -21 38 48 rcurveline
            48 -47 -50 47 -66 hhcurveto
            -69 -55 -51 -69 -67 53 -70 120 -31 hvcurveto
            return
          </CharString>
          <CharString index="207">
            -100 callgsubr
            hintmask 11010000
            -21 callsubr
            hintmask 10110000
            107 callgsubr
            return
          </CharString>
          <CharString index="208">
            rmoveto
            75 60 -150 178 -96 -83 60 -48 55 -53 56 -54 rlinecurve
            return
          </CharString>
          <CharString index="209">
            24 50 103 -82 78 hhcurveto
            return
          </CharString>
          <CharString index="210">
            125 160 callgsubr
            444 -97 hlineto
            -43 -11 -40 -25 -29 -39 -78 72 238 callsubr
            -110 69 -75 64 78 vvcurveto
            55 38 39 49 17 18 -4 -10 19 vhcurveto
            -14 -36 -6 -43 4 -51 99 -64 rcurveline
            31 18 rlineto
            return
          </CharString>
          <CharString index="211">
            rmoveto
            56 -52 147 110 154 -110 53 52 -151 155 rlineto
            -111 hlineto
            endchar
          </CharString>
          <CharString index="212">
            235 callsubr
            endchar
          </CharString>
          <CharString index="213">
            -42 -54 -66 -27 -49 15 rrcurveto
            return
          </CharString>
          <CharString index="214">
            hvcurveto
            111 vlineto
            -84 callsubr
            return
          </CharString>
          <CharString index="215">
            494 2 2 callsubr
            return
          </CharString>
          <CharString index="216">
            rmoveto
            111 620 callgsubr
            rlineto
            return
          </CharString>
          <CharString index="217">
            547 112 callsubr
          </CharString>
          <CharString index="218">
            80 callsubr
            endchar
          </CharString>
          <CharString index="219">
            -59 callsubr
            endchar
          </CharString>
          <CharString index="220">
            18 -43 rlineto
            135 -30 hlineto
            -21 -6 -25 -10 -17 -10 3 -15 rcurveline
            183 hlineto
            1 27 -38 7 rlineto
            37 39 vlineto
            return
          </CharString>
          <CharString index="221">
            rmoveto
            43 27 22 24 23 17 -19 -29 -37 -29 -29 -43 -15 vhcurveto
            -13 23 -6 21 20 vvcurveto
            return
          </CharString>
          <CharString index="222">
            -203 -45 rlineto
            -16 15 -10 14 17 vvcurveto
            31 33 22 48 vhcurveto
            return
          </CharString>
          <CharString index="223">
            83 83 -5 36 -185 82 rlineto
            140 58 68 106 92 vvcurveto
            return
          </CharString>
          <CharString index="224">
            17 rlinecurve
            -52 253 callsubr
            return
          </CharString>
          <CharString index="225">
            113 10 -98 callgsubr
            return
          </CharString>
          <CharString index="226">
            276 callsubr
            45 rlineto
            return
          </CharString>
          <CharString index="227">
            17 -39 116 9 rlineto
            return
          </CharString>
          <CharString index="228">
            23 -38 -48 12 -53 hhcurveto
            -131 -97 -76 -99 -70 47 -58 76 -27 hvcurveto
            -40 -26 -40 -35 -32 -35 20 -64 rcurveline
            21 -1 21 -1 21 -2 rrcurveto
            hintmask 1011011001000000
            -110 -99 rlineto
            -107 3 105 -43 100 hhcurveto
            hintmask 1101010100000000
            184 160 144 150 -53 hvcurveto
            -94 31 -142 27 -108 2 14 14 18 16 20 15 rrcurveto
            return
          </CharString>
          <CharString index="229">
            46 -67 47 -50 47 -37 rrcurveto
            -25 -22 -12 -29 -29 vvcurveto
            -77 85 -83 114 -32 vhcurveto
            150 46 rlineto
            -63 13 -69 -42 -72 hhcurveto
            -91 -77 62 87 -57 hvcurveto
            -54 -47 rlineto
            -149 99 113 -61 106 hhcurveto
            116 71 74 81 66 -47 81 -100 25 hvcurveto
            -168 -44 rlineto
            -17 12 -8 15 15 vvcurveto
            22 15 20 27 10 vhcurveto
            return
          </CharString>
          <CharString index="230">
            415 callgsubr
            rrcurveto
            156 524 rmoveto
            33 24 31 37 18 38 -24 33 -38 35 -39 20 -34 -25 -31 -39 -21 -42 25 -32 42 -32 38 -17 rrcurveto
            endchar
          </CharString>
          <CharString index="231">
            hhcurveto
            32 35 7 18 32 217 callgsubr
            return
          </CharString>
          <CharString index="232">
            rmoveto
            75 -60 56 53 55 53 60 49 rlinecurve
            -96 83 rlineto
            return
          </CharString>
          <CharString index="233">
            552 callgsubr
            323 496 callgsubr
            return
          </CharString>
          <CharString index="234">
            -146 -98 callgsubr
            return
          </CharString>
          <CharString index="235">
            -179 -179 -95 callsubr
          </CharString>
          <CharString index="236">
            182 callsubr
            17 -34 121 9 67 53 6 57 rlinecurve
            45 6 -47 47 -84 hhcurveto
            return
          </CharString>
          <CharString index="237">
            263 -173 rmoveto
            -22 14 -7 18 19 vvcurveto
            62 77 57 105 2 vhcurveto
            6 -20 2 -83 -90 -70 -71 1 rlinecurve
            return
          </CharString>
          <CharString index="238">
            153 callgsubr
            hvcurveto
            return
          </CharString>
          <CharString index="239">
            172 vlineto
            42 35 38 31 29 hhcurveto
            18 12 -13 -18 -32 -42 -47 -66 -45 hvcurveto
            72 -84 rlineto
            73 43 260 callgsubr
            -39 26 rlineto
            115 5 72 78 88 384 callgsubr
            86 callgsubr
            return
          </CharString>
          <CharString index="240">
            60 -47 hvcurveto
            131 -33 rlineto
            52 -13 17 -21 -21 vvcurveto
            -45 -78 -26 -87 19 vhcurveto
            -62 72 -43 -9 -40 -140 27 -22 51 -17 43 -6 rlinecurve
            198 -199 return
          </CharString>
          <CharString index="241">
            158 346 callsubr
            -65 -21 620 51 -32 32 hstemhm
            111 109 return
          </CharString>
          <CharString index="242">
            -72 -26 -42 -48 -32 -30 13 23 -20 vhcurveto
            34 159 -20 31 -42 5 -50 -4 -35 -13 rlinecurve
            hintmask 0010101111000000
            -100 callsubr
            return
          </CharString>
          <CharString index="243">
            125 callsubr
            endchar
          </CharString>
          <CharString index="244">
            173 -185 -102 callsubr
            return
          </CharString>
          <CharString index="245">
            -78 callsubr
            394 -60 -134 hlineto
            -124 -53 -59 -66 -89 97 -92 130 -35 hvcurveto
            152 49 rlineto
            return
          </CharString>
          <CharString index="246">
            337 callsubr
            -90 85 -80 124 -28 vhcurveto
            return
          </CharString>
          <CharString index="247">
            hstemhm
            111 520 callgsubr
            return
          </CharString>
          <CharString index="248">
            rrcurveto
            -19 19 -11 25 22 vvcurveto
            43 36 43 88 vhcurveto
            174 hlineto
            17 35 -59 93 rlineto
            -170 hlineto
            hintmask 0111010101000000
            -36 -31 -5 -9 -26 hvcurveto
            -22 18 -10 19 17 vvcurveto
            26 23 24 57 vhcurveto
            254 hlineto
            hintmask 0110110011000000
            137 vlineto
            -84 callsubr
            180 hlineto
            17 35 -53 66 rlineto
            -603 hlineto
            endchar
          </CharString>
          <CharString index="249">
            676 rmoveto
            30 -41 rlineto
            74 34 47 67 61 vvcurveto
            40 -25 41 -52 51 callsubr
            endchar
          </CharString>
          <CharString index="250">
            -2 42 rlineto
            -110 hlineto
            -48 178 53 -6 53 -25 44 -43 rlinecurve
            return
          </CharString>
          <CharString index="251">
            236 vlineto
            57 48 52 38 40 hhcurveto
            34 13 -23 -24 -52 -59 -52 -83 -61 hvcurveto
            return
          </CharString>
          <CharString index="252">
            rmoveto
            181 callsubr
            return
          </CharString>
          <CharString index="253">
            330 callgsubr
            190 vmoveto
            17 callgsubr
            endchar
          </CharString>
          <CharString index="254">
            vvcurveto
            59 44 30 50 23 24 -7 -12 22 vhcurveto
            20 66 rlineto
            31 -31 -52 27 -58 hhcurveto
            -91 -59 -67 -76 return
          </CharString>
          <CharString index="255">
            62 -88 rlineto
            103 41 39 46 137 vvcurveto
            144 vlineto
            -84 callsubr
            158 -37 callgsubr
            return
          </CharString>
          <CharString index="256">
            80 -3 26 -10 18 vhcurveto
            -28 46 -56 22 -38 2 return
          </CharString>
          <CharString index="257">
            20 -18 4 -28 -31 vvcurveto
            return
          </CharString>
          <CharString index="258">
            hstem
            -20 746 168 callsubr
            return
          </CharString>
          <CharString index="259">
            hhcurveto
            -104 -60 -71 -80 -60 36 -61 55 -45 hvcurveto
            51 29 rlineto
            -20 29 -10 27 24 vvcurveto
            46 37 38 54 87 51 -100 -110 38 vhcurveto
            -110 hlineto
            return
          </CharString>
          <CharString index="260">
            rmoveto
            135 -135 71 31 -80 246 rlineto
            hintmask 10110000
            -74 225 -126 47 -152 -67 53 -133 rcurveline
            hintmask 11010000
            287 callsubr
          </CharString>
          <CharString index="261">
            482 callgsubr
            191 -37 callgsubr
            -657 hlineto
            endchar
          </CharString>
          <CharString index="262">
            531 callgsubr
            -243 -164 372 callsubr
            return
          </CharString>
          <CharString index="263">
            136 -72 rmoveto
            22 21 26 33 25 vhcurveto
            97 -11 90 -21 53 -23 rrcurveto
            -50 -33 -81 -26 -68 hhcurveto
            -62 -50 20 38 hvcurveto
            172 299 rmoveto
            return
          </CharString>
          <CharString index="264">
            rmoveto
            -30 -23 14 22 -20 hvcurveto
            -6 43 -22 42 -38 35 rrcurveto
            180 hlineto
            -61 56 -17 -95 -80 hhcurveto
            return
          </CharString>
          <CharString index="265">
            -44 80 -63 42 vhcurveto
            30 vlineto
            -84 callsubr
            236 hlineto
            17 35 -47 66 rlineto
            return
          </CharString>
          <CharString index="266">
            115 callsubr
            238 hlineto
            return
          </CharString>
          <CharString index="267">
            -178 -46 rlineto
            -21 16 -8 18 15 vvcurveto
            29 28 21 53 vhcurveto
            return
          </CharString>
          <CharString index="268">
            272 callgsubr
            -336 vlineto
            return
          </CharString>
          <CharString index="269">
            -183 -48 rlineto
            -22 16 -9 15 14 vvcurveto
            27 30 19 53 vhcurveto
            return
          </CharString>
          <CharString index="270">
            0 51 -51 64 -64 281 callsubr
            return
          </CharString>
          <CharString index="271">
            77 -11 rlineto
            -226 -269 vlineto
            return
          </CharString>
          <CharString index="272">
            -33 108 -69 -6 rlineto
            return
          </CharString>
          <CharString index="273">
            12 callgsubr
            endchar
          </CharString>
          <CharString index="274">
            128 90 118 19 500 callgsubr
            hintmask 0111001011000000
            -20 callgsubr
            hintmask 0111010101000000
            -78 callsubr
            367 -64 -162 hlineto
            -122 -41 -58 -54 -49 34 -51 54 -40 hvcurveto
            hintmask 1111010011000000
            -42 -33 -18 -47 -42 vvcurveto
            return
          </CharString>
          <CharString index="275">
            vstem
            173 callsubr
            return
          </CharString>
          <CharString index="276">
            rmoveto
            -30 -42 rlineto
            -74 34 -46 67 61 vvcurveto
            40 25 41 51 13 vhcurveto
            38 -17 23 -32 7 -41 -52 -40 rcurveline
            3 -30 18 -23 37 -31 rrcurveto
            return
          </CharString>
          <CharString index="277">
            33 callgsubr
            447 callsubr
            return
          </CharString>
          <CharString index="278">
            25 callgsubr
            295 callsubr
            return
          </CharString>
          <CharString index="279">
            52 hlineto
            27 91 rlineto
            1 3 3 0 2 hhcurveto
            30 23 -23 -33 -22 -13 -30 -61 -57 hvcurveto
            endchar
          </CharString>
          <CharString index="280">
            272 646 -107 callsubr
            return
          </CharString>
          <CharString index="281">
            rmoveto
            71 -51 52 54 57 59 55 51 rlinecurve
            -98 65 rlineto
            -337 -178 rmoveto
            70 -51 53 54 57 59 55 51 rlinecurve
            -99 65 rlineto
            endchar
          </CharString>
          <CharString index="282">
            119 300 317 callgsubr
            82 386 callgsubr
            -51 105 return
          </CharString>
          <CharString index="283">
            rmoveto
            154 77 -11 49 rlineto
            -6 -26 -34 -7 -24 hhcurveto
            -26 -10 11 35 hvcurveto
            227 87 vlineto
            return
          </CharString>
          <CharString index="284">
            -47 -72 rmoveto
            130 98 71 101 33 -10 29 -18 25 hvcurveto
            29 11 31 4 35 -3 -25 129 rcurveline
            -67 -6 -41 -35 -20 -48 rrcurveto
            return
          </CharString>
          <CharString index="285">
            160 -118 38 -138 -91 rlinecurve
            72 -135 108 71 66 -7 return
          </CharString>
          <CharString index="286">
            133 53 -96 178 30 22 27 30 14 29 523 callsubr
            return
          </CharString>
          <CharString index="287">
            72 callsubr
            hstemhm
            return
          </CharString>
          <CharString index="288">
            37 18 23 28 12 38 -10 39 -35 30 return
          </CharString>
          <CharString index="289">
            27 -43 106 9 -7 -91 -126 -41 rlinecurve
            return
          </CharString>
          <CharString index="290">
            485 callsubr
            rlinecurve
            33 44 return
          </CharString>
          <CharString index="291">
            rmoveto
            hintmask 1000100110000000
            66 40 65 60 35 33 -24 -42 35 vhcurveto
            -34 -71 -38 -76 -64 -49 rrcurveto
            hintmask 1001010110000000
            -40 23 -27 54 54 vvcurveto
            404 155 rmoveto
            49 -19 23 -60 -52 vvcurveto
            -66 -36 -65 -69 -37 -28 18 38 -31 vhcurveto
            37 68 38 77 54 61 rrcurveto
            return
          </CharString>
          <CharString index="292">
            483 callsubr
            9 -213 rlineto
            -77 hlineto
            -32 -49 return
          </CharString>
          <CharString index="293">
            -123 147 -132 108 return
          </CharString>
          <CharString index="294">
            360 callsubr
            hintmask 10110000
            375 callgsubr
            hintmask 11010000
            -11 -152 382 callgsubr
            endchar
          </CharString>
          <CharString index="295">
            17 59 7 72 -3 39 rrcurveto
            24 -34 -74 37 -105 hhcurveto
            -240 -125 -177 -185 -162 102 -189 271 15 hvcurveto
            return
          </CharString>
          <CharString index="296">
            96 43 74 callgsubr
            rlineto
            return
          </CharString>
          <CharString index="297">
            -145 -14 117 270 124 return
          </CharString>
          <CharString index="298">
            -11 rmoveto
            77 64 49 79 49 hvcurveto
            -86 92 rlineto
            -69 -46 -51 -34 -48 hhcurveto
            -47 -39 32 52 30 13 32 55 67 hvcurveto
            166 206 -84 108 -187 -233 rlineto
            -57 -70 -20 -60 -45 vvcurveto
            -109 115 -127 126 vhcurveto
            endchar
          </CharString>
          <CharString index="299">
            456 callsubr
            160 232 callsubr
            -301 vlineto
            -53 -236 226 callgsubr
            return
          </CharString>
          <CharString index="300">
            224 callsubr
            -34 -6 -39 3 -44 390 callgsubr
            rlineto
            return
          </CharString>
          <CharString index="301">
            197 477 rmoveto
            72 70 40 46 -44 vhcurveto
            13 -42 -30 -61 -65 -45 rrcurveto
            -22 23 -12 27 30 vvcurveto
            -183 -218 rmoveto
            return
          </CharString>
          <CharString index="302">
            232 callgsubr
            443 124 return
          </CharString>
          <CharString index="303">
            -39 -82 -95 -32 -68 17 rrcurveto
            return
          </CharString>
          <CharString index="304">
            hintmask 11010100
            -78 callsubr
            return
          </CharString>
          <CharString index="305">
            394 callsubr
            -62 11 -50 -8 -39 -18 rlinecurve
            267 callsubr
            return
          </CharString>
          <CharString index="306">
            17 -45 rlineto
            226 hlineto
            15 88 -144 -28 -3 6 rlineto
            87 59 46 53 51 vvcurveto
            return
          </CharString>
          <CharString index="307">
            -5 47 rlineto
            -241 105 callsubr
          </CharString>
          <CharString index="308">
            -64 callsubr
            -179 -179 -103 callsubr
            return
          </CharString>
          <CharString index="309">
            -78 callsubr
            327 -94 -58 hlineto
            -163 -72 -83 -93 return
          </CharString>
          <CharString index="310">
            63 79 50 -23 50 -44 40 hvcurveto
            return
          </CharString>
          <CharString index="311">
            -5 rlineto
            -55 -29 -23 -45 -40 vvcurveto
            return
          </CharString>
          <CharString index="312">
            256 -173 rmoveto
            -26 14 -8 20 19 vvcurveto
            20 9 20 16 17 vhcurveto
            120 -71 -30 -25 -40 -15 -41 1 rlinecurve
            32 141 rmoveto
            34 19 45 12 49 1 6 -22 rcurveline
            1 -24 -9 -27 -15 -24 rrcurveto
            -447 702 rmoveto
            return
          </CharString>
          <CharString index="313">
            -68 callgsubr
            endchar
          </CharString>
          <CharString index="314">
            -95 callgsubr
            endchar
          </CharString>
          <CharString index="315">
            3 callgsubr
            endchar
          </CharString>
          <CharString index="316">
            -203 85 183 -115 169 hhcurveto
            return
          </CharString>
          <CharString index="317">
            80 vvcurveto
            hintmask 10101110
            -14 callsubr
          </CharString>
          <CharString index="318">
            9 rmoveto
            88 -48 -71 callsubr
            421 vlineto
            130 -95 134 -128 -92 -66 -70 -82 -89 78 -74 125 -51 vhcurveto
            31 70 rlineto
            -65 28 -36 39 48 vvcurveto
            55 47 36 47 -18 vhcurveto
            21 -21 6 -44 -42 vvcurveto
            endchar
          </CharString>
          <CharString index="319">
            -18 20 -14 27 -11 27 rrcurveto
            101 373 callsubr
            return
          </CharString>
          <CharString index="320">
            -78 callsubr
            346 139 callgsubr
            return
          </CharString>
          <CharString index="321">
            275 callgsubr
            186 callsubr
            return
          </CharString>
          <CharString index="322">
            -72 71 rlineto
            49 551 callsubr
            -52 -56 -28 -50 -59 hvcurveto
            return
          </CharString>
          <CharString index="323">
            141 callgsubr
            180 432 callsubr
            return
          </CharString>
          <CharString index="324">
            -119 147 -114 123 vhcurveto
            return
          </CharString>
          <CharString index="325">
            168 141 callgsubr
            return
          </CharString>
          <CharString index="326">
            103 0 300 callsubr
            return
          </CharString>
          <CharString index="327">
            285 370 rmoveto
            39 43 -13 -23 42 hvcurveto
            -80 vlineto
            -12 -17 -15 -15 -16 -12 -103 159 rcurveline
            1 7 7 0 8 hhcurveto
            -98 -185 rmoveto
            -40 51 9 74 51 37 107 -164 rcurveline
            -45 -16 -49 1 -33 17 rrcurveto
            return
          </CharString>
          <CharString index="328">
            38 493 289 callgsubr
            66 135 hintmask 10100010
            36 324 rmoveto
            return
          </CharString>
          <CharString index="329">
            259 171 55 -214 125 50 -108 201 30 21 29 29 14 29 523 callsubr
            rlineto
            return
          </CharString>
          <CharString index="330">
            hintmask 10110000
            128 560 callsubr
            hintmask 01010000
            -29 callgsubr
            hintmask 10010000
            300 callgsubr
            hintmask 10110000
            230 callgsubr
            return
          </CharString>
          <CharString index="331">
            79 callgsubr
            15 16 -3 -8 16 vhcurveto
            -14 return
          </CharString>
          <CharString index="332">
            139 callsubr
            602 callsubr
            return
          </CharString>
          <CharString index="333">
            572 -87 callsubr
            return
          </CharString>
          <CharString index="334">
            rlineto
            -2 callsubr
            return
          </CharString>
          <CharString index="335">
            60 -75 116 16 vhcurveto
            109 return
          </CharString>
          <CharString index="336">
            -20 64 396 callsubr
            return
          </CharString>
          <CharString index="337">
            323 callgsubr
            rrcurveto
            return
          </CharString>
          <CharString index="338">
            737.39 128.92 hstem
            -563 454 vstem
            -190 622 rmoveto
            81 hlineto
            -8 390 -331 -263 -41 242 -74 -10 rcurveline
            23 -377 340 236 10 -218 rrcurveto
            return
          </CharString>
          <CharString index="339">
            94 callgsubr
            -166 return
          </CharString>
          <CharString index="340">
            210 callgsubr
            -30 -42 -16 hvcurveto
            return
          </CharString>
          <CharString index="341">
            183 callgsubr
            451 callgsubr
            return
          </CharString>
          <CharString index="342">
            hlineto
            -31 -43 -5 -20 -39 hvcurveto
            return
          </CharString>
          <CharString index="343">
            rrcurveto
            150 callsubr
            return
          </CharString>
          <CharString index="344">
            270 callsubr
            hintmask 1100101101000000
            -57 callsubr
            hintmask 1100110101000000
            -40 callsubr
            return
          </CharString>
          <CharString index="345">
            rcurveline
            57 callgsubr
            53 70 rlineto
            return
          </CharString>
          <CharString index="346">
            220 vlineto
            57 48 50 36 38 hhcurveto
            20 12 -9 -14 13 hvcurveto
            87 callgsubr
            return
          </CharString>
          <CharString index="347">
            -20 65 215 callgsubr
            return
          </CharString>
          <CharString index="348">
            45 hhcurveto
            35 24 -13 -26 24 hvcurveto
            41 49 rlineto
            60 -41 -57 45 -66 hhcurveto
            return
          </CharString>
          <CharString index="349">
            604 109 callsubr
            return
          </CharString>
          <CharString index="350">
            -20 -7 -19 -9 -16 -9 3 -34 rcurveline
            return
          </CharString>
          <CharString index="351">
            95 -101 rlineto
            97 65 62 79 91 vvcurveto
            return
          </CharString>
          <CharString index="352">
            109 -109 121 return
          </CharString>
          <CharString index="353">
            -231 473 callgsubr
            -187 373 hintmask 10100000
            -187 -167 452 callgsubr
            320 hlineto
            hintmask 01100000
            47 42 rlineto
            hintmask 10100000
            -5 47 rlineto
            -255 hlineto
            -31 -43 -6 -19 -39 hvcurveto
            endchar
          </CharString>
          <CharString index="354">
            -3 111 callsubr
          </CharString>
          <CharString index="355">
            -41 -89 -12 hvcurveto
            return
          </CharString>
          <CharString index="356">
            -90 -35 15 -89 -48 -24 -61 -10 -52 24 rlinecurve
            -31 23 -14 38 31 vvcurveto
            52 39 56 419 callsubr
            return
          </CharString>
          <CharString index="357">
            107 -85 94 -100 -44 -41 -18 -29 -35 vhcurveto
            102 vlineto
            -84 callsubr
            422 hlineto
            17 35 -47 66 rlineto
            return
          </CharString>
          <CharString index="358">
            -78 callsubr
            401 -205 hlineto
            215 callsubr
            return
          </CharString>
          <CharString index="359">
            53 378 callsubr
            49 112 return
          </CharString>
          <CharString index="360">
            -13 15 callgsubr
            -61 46 -67 return
          </CharString>
          <CharString index="361">
            77 1 279 vlineto
            -84 callsubr
            return
          </CharString>
          <CharString index="362">
            84 3 rcurveline
            18 108 18 return
          </CharString>
          <CharString index="363">
            -28 -33 -76 hvcurveto
            -3 -47 8 return
          </CharString>
          <CharString index="364">
            125 74 135 return
          </CharString>
          <CharString index="365">
            -21 45 102 49 122 59 121 -99 119 -85 65 256 callgsubr
            25 444 callsubr
            119 109 219 257 callsubr
            return
          </CharString>
          <CharString index="366">
            23 callgsubr
            7 618 callgsubr
            return
          </CharString>
          <CharString index="367">
            103 -42 callgsubr
            300 callsubr
            return
          </CharString>
          <CharString index="368">
            349 callsubr
            hintmask 0110100100110000
            91 callgsubr
            hintmask 0110100011110000
            return
          </CharString>
          <CharString index="369">
            89 78 rlineto
            35 vlineto
            return
          </CharString>
          <CharString index="370">
            -30 callsubr
            -61 11 -51 -8 -39 -19 rlinecurve
            -40 callgsubr
            return
          </CharString>
          <CharString index="371">
            -268 170 hstem
            -78 159 vstem
            10 -268 rmoveto
            36 19 24 28 11 38 -8 35 -37 33 -40 17 -38 -21 -30 -32 -6 -46 18 -36 28 -22 42 -13 rrcurveto
            endchar
          </CharString>
          <CharString index="372">
            -41 callsubr
            hintmask 01100000
            -70 callsubr
            hintmask 10100000
            -31 callgsubr
            return
          </CharString>
          <CharString index="373">
            -252 rmoveto
            558 callsubr
            51 53 43 75 43 vhcurveto
            -28 20 rlineto
            -133 -46 -70 -72 -69 vvcurveto
            -60 471 callsubr
            endchar
          </CharString>
          <CharString index="374">
            -26 23 -16 27 28 vvcurveto
            47 43 28 44 -10 vhcurveto
            27 -23 20 -30 19 -35 55 40 rcurveline
            return
          </CharString>
          <CharString index="375">
            -123 67 110 -75 104 288 callgsubr
            return
          </CharString>
          <CharString index="376">
            45 -1 34 74 rlineto
            32 24 -22 -29 -23 -16 -32 -51 -2 hvcurveto
            return
          </CharString>
          <CharString index="377">
            273 callgsubr
            -882 hlineto
            return
          </CharString>
          <CharString index="378">
            35 338 callsubr
            116 132 return
          </CharString>
          <CharString index="379">
            -34 -26 -20 -65 -14 vhcurveto
            36 -60 -59 17 -63 hhcurveto
            return
          </CharString>
          <CharString index="380">
            88 callgsubr
            140 return
          </CharString>
          <CharString index="381">
            -3 80 callsubr
            return
          </CharString>
          <CharString index="382">
            vvcurveto
            29 26 22 58 vhcurveto
            return
          </CharString>
          <CharString index="383">
            132 vlineto
            -60 return
          </CharString>
          <CharString index="384">
            185 -42 callgsubr
            -57 callgsubr
            return
          </CharString>
          <CharString index="385">
            170 callsubr
            127 vlineto
            -60 44 rlineto
            return
          </CharString>
          <CharString index="386">
            546 callsubr
            74 34 47 67 61 vvcurveto
            40 -25 41 -52 51 callsubr
            endchar
          </CharString>
          <CharString index="387">
            -41 callsubr
            -45 17 rlineto
            return
          </CharString>
          <CharString index="388">
            73 523 135 callgsubr
            return
          </CharString>
          <CharString index="389">
            -11 callsubr
            hintmask 0110101101100000
            -81 callgsubr
            hintmask 1010101101100000
            -5 callsubr
            return
          </CharString>
          <CharString index="390">
            225 -27 rmoveto
            -17 17 -8 20 526 callgsubr
            6 rrcurveto
            33 -27 20 -31 -33 vvcurveto
            -88 -135 -51 -95 45 vhcurveto
            return
          </CharString>
          <CharString index="391">
            -78 callsubr
            328 -128 hlineto
            -93 48 rlineto
            -121 25 -91 -80 -101 vvcurveto
            -127 142 -82 401 callsubr
            return
          </CharString>
          <CharString index="392">
            -40 -14 -77 callsubr
            return
          </CharString>
          <CharString index="393">
            -5 36 -147 79 rlineto
            92 81 48 91 71 -49 78 -87 73 hvcurveto
            -193 42 rlineto
            return
          </CharString>
          <CharString index="394">
            68 callsubr
            endchar
          </CharString>
          <CharString index="395">
            -104 callsubr
            -48 66 rlineto
            return
          </CharString>
          <CharString index="396">
            121 178 129 49 384 callsubr
            return
          </CharString>
          <CharString index="397">
            -84 callsubr
            171 -37 callgsubr
            -286 hlineto
            return
          </CharString>
          <CharString index="398">
            115 -12 49 71 55 hhcurveto
            18 17 -7 -17 16 hvcurveto
            -145 64 121 -91 115 288 callgsubr
            return
          </CharString>
          <CharString index="399">
            319 -320 rmoveto
            -28 -29 6 12 -24 hvcurveto
            -20 21 -9 25 22 vvcurveto
            43 34 40 78 vhcurveto
            96 hlineto
            22 -22 10 -26 -26 vvcurveto
            -63 -63 -32 -67 vhcurveto
            return
          </CharString>
          <CharString index="400">
            48 108 46 hstemhm
            44.5 225.5 -87 87 -74 90 return
          </CharString>
          <CharString index="401">
            185 173 432 callsubr
            203 -37 callgsubr
            -634 hlineto
            return
          </CharString>
          <CharString index="402">
            56 29 rlineto
            254 callsubr
            return
          </CharString>
          <CharString index="403">
            551 -101 callgsubr
            return
          </CharString>
          <CharString index="404">
            -23 22 -11 26 25 vvcurveto
            50 46 41 95 vhcurveto
            return
          </CharString>
          <CharString index="405">
            vvcurveto
            -65 50 -57 55 -36 vhcurveto
            return
          </CharString>
          <CharString index="406">
            320 callgsubr
            2 return
          </CharString>
          <CharString index="407">
            56 126 76 return
          </CharString>
          <CharString index="408">
            191 285 rmoveto
            208 vlineto
            -61 45 rlineto
            255 -131 hlineto
            -12 0 -11 -1 -10 vhcurveto
            -91 -9 -50 -31 -60 hhcurveto
            -32 -27 10 23 -15 hvcurveto
            return
          </CharString>
          <CharString index="409">
            18 471 callgsubr
            272 243 callgsubr
            276 vlineto
            33 19 33 15 26 254 callgsubr
            return
          </CharString>
          <CharString index="410">
            803 -103 callsubr
            return
          </CharString>
          <CharString index="411">
            299 callsubr
            -174 422 callgsubr
            32 rlineto
            74 1 249 vlineto
            -84 callsubr
            220 return
          </CharString>
          <CharString index="412">
            435 callgsubr
            hintmask 10011000
            -343 652 rmoveto
            hintmask 10101000
            -78 callsubr
            return
          </CharString>
          <CharString index="413">
            27 callgsubr
            422 205 callgsubr
            hintmask 01110100
            return
          </CharString>
          <CharString index="414">
            148 -14 108 -108 465 -465 653 -307 121 -121 307 -101 396 callsubr
            27 120 476 116 return
          </CharString>
          <CharString index="415">
            82 545 rmoveto
            404 callsubr
            return
          </CharString>
          <CharString index="416">
            118 -55 125 -123 53 129 -97 callgsubr
            28 -20 hstemhm
            return
          </CharString>
          <CharString index="417">
            -78 callsubr
            333 -59 callgsubr
            return
          </CharString>
          <CharString index="418">
            48 -31 -49 371 callgsubr
            return
          </CharString>
          <CharString index="419">
            -39 -47 -13 -18 -27 hvcurveto
            -2 -24 3 -40 6 -24 rrcurveto
            return
          </CharString>
          <CharString index="420">
            569 callgsubr
            273 -203 -216 hlineto
            return
          </CharString>
          <CharString index="421">
            467 callgsubr
            177 432 callsubr
            return
          </CharString>
          <CharString index="422">
            17 -14 18 -11 17 -9 -182 -128 rcurveline
            96 -78 return
          </CharString>
          <CharString index="423">
            791 -41 callsubr
            return
          </CharString>
          <CharString index="424">
            228 vlineto
            57 48 50 43 38 hhcurveto
            return
          </CharString>
          <CharString index="425">
            154 120 417 callgsubr
            return
          </CharString>
          <CharString index="426">
            -84 -94 53 102 -64 hvcurveto
            -58 -47 return
          </CharString>
          <CharString index="427">
            hlineto
            -123 -43 -59 -54 return
          </CharString>
          <CharString index="428">
            19 -3 21 -7 20 vhcurveto
            return
          </CharString>
          <CharString index="429">
            -12 15 callgsubr
            return
          </CharString>
          <CharString index="430">
            -20 88 522 88 return
          </CharString>
          <CharString index="431">
            -59 callgsubr
            -125 144 -86 401 callsubr
            return
          </CharString>
          <CharString index="432">
            101 -71 95 24 114 -87 -21 390 118 callsubr
            64 107 -84 113 105 109 -13 119 26 94 return
          </CharString>
          <CharString index="433">
            48 callsubr
            -38 callgsubr
            17 35 -47 66 rlineto
            -328 hlineto
            return
          </CharString>
          <CharString index="434">
            24 28 15 29 30 vvcurveto
            50 -42 53 -62 -34 -27 -16 -24 -19 vhcurveto
            29 -23 -27 11 -27 hhcurveto
            -54 -41 -44 -54 -69 67 -58 54 -35 hvcurveto
            return
          </CharString>
          <CharString index="435">
            92 -92 144 return
          </CharString>
          <CharString index="436">
            179 16 -21 313 122 -72 362 callgsubr
            32 134 171 135 187 112 hintmask 1101101110000000
            return
          </CharString>
          <CharString index="437">
            103 59 rlineto
            44 -15 22 -41 -38 vvcurveto
            -55 -45 -45 -67 -91 -68 83 122 -58 vhcurveto
            -71 -40 rlineto
            -230 106 118 -56 98 hhcurveto
            return
          </CharString>
          <CharString index="438">
            46 -66 rlineto
            93 hlineto
            -10 -19 -6 -21 -23 vvcurveto
            -64 44 -56 56 -36 vhcurveto
            return
          </CharString>
          <CharString index="439">
            126 callgsubr
            -26 45 -12 rrcurveto
            return
          </CharString>
          <CharString index="440">
            -105 -224 20 21 -21 184 347 callsubr
            hstemhm
            44 80 return
          </CharString>
          <CharString index="441">
            -84 81 -31 47 48 vvcurveto
            60 46 39 68 return
          </CharString>
          <CharString index="442">
            13 -23 -24 -52 -59 -53 -83 -61 hvcurveto
            95 return
          </CharString>
          <CharString index="443">
            13 24 494 callgsubr
            return
          </CharString>
          <CharString index="444">
            hlineto
            347 callgsubr
            return
          </CharString>
          <CharString index="445">
            41 -98 callgsubr
            return
          </CharString>
          <CharString index="446">
            -55 callsubr
            112 376 callsubr
            75 103 -103 135 hintmask 1101010010000000
            return
          </CharString>
          <CharString index="447">
            -123 -54 -59 -66 -89 98 -92 129 -35 hvcurveto
            153 49 rlineto
            -64 13 -64 -61 -87 hhcurveto
            -83 -109 53 150 -83 hvcurveto
            return
          </CharString>
          <CharString index="448">
            -22 -27 -12 -31 -32 298 callsubr
            return
          </CharString>
          <CharString index="449">
            -37 377 callgsubr
            return
          </CharString>
          <CharString index="450">
            328 125 40 592 callgsubr
            return
          </CharString>
          <CharString index="451">
            101 -68 92 -58 34 hstemhm
            42 114 103 114 return
          </CharString>
          <CharString index="452">
            10 -21 -22 8 -31 hhcurveto
            -103 -81 -89 -122 hvcurveto
            return
          </CharString>
          <CharString index="453">
            99 callgsubr
            73 return
          </CharString>
          <CharString index="454">
            147 223 147 return
          </CharString>
          <CharString index="455">
            152 269 152 return
          </CharString>
          <CharString index="456">
            -65 callsubr
            hintmask 1000101000110000
            -49 callgsubr
            return
          </CharString>
          <CharString index="457">
            -68 -51 -86 -48 -102 10 callgsubr
            rlineto
            return
          </CharString>
          <CharString index="458">
            105 -19 122 54 111 -101 101 -84 119 -85 237 -222 271 callsubr
            return
          </CharString>
          <CharString index="459">
            363 callsubr
            -62 -81 -59 34 -54 53 -46 vhcurveto
            return
          </CharString>
          <CharString index="460">
            -889 -65 callsubr
            return
          </CharString>
          <CharString index="461">
            rmoveto
            77 -52 158 182 rlineto
            66 vlineto
            -155 186 -74 -48 return
          </CharString>
          <CharString index="462">
            82 -20 98 161 64 -48 48 -34 34 144 231 -88 88 return
          </CharString>
          <CharString index="463">
            -20 452 callsubr
            return
          </CharString>
          <CharString index="464">
            -19 callgsubr
            164 callgsubr
            return
          </CharString>
          <CharString index="465">
            204 392 callgsubr
            return
          </CharString>
          <CharString index="466">
            183 190 rmoveto
            62 -50 31 112 120 hhcurveto
            37 36 -10 -21 38 hvcurveto
            -75 vlineto
            -50 -65 -99 -30 -63 27 rrcurveto
            return
          </CharString>
          <CharString index="467">
            vmoveto
            113 callsubr
            return
          </CharString>
          <CharString index="468">
            182 callsubr
            endchar
          </CharString>
          <CharString index="469">
            396 callsubr
            322 116 return
          </CharString>
          <CharString index="470">
            84 -74 122 -119 -85 -65 return
          </CharString>
          <CharString index="471">
            -51 51 -32 32 return
          </CharString>
          <CharString index="472">
            30 -14 17 -32 -32 vvcurveto
            -47 -37 -37 -59 -61 -54 42 107 -72 vhcurveto
            -63 -49 rlineto
            -171 103 113 -38 71 hhcurveto
            return
          </CharString>
          <CharString index="473">
            -21 129 84 callsubr
            return
          </CharString>
          <CharString index="474">
            125 87 79 89 484 callsubr
            hvcurveto
            162 callsubr
            return
          </CharString>
          <CharString index="475">
            31 -14 20 -31 -33 vvcurveto
            -47 -41 -37 -60 -66 -52 45 104 -69 vhcurveto
            -62 -49 rlineto
            -171 103 114 -39 70 hhcurveto
            return
          </CharString>
          <CharString index="476">
            319 callsubr
            27 -40 27 -34 28 -27 rlinecurve
            -32 -28 -15 -33 -33 vvcurveto
            -49 32 -47 57 -27 vhcurveto
            return
          </CharString>
          <CharString index="477">
            -2 hlineto
            391 callgsubr
            vhcurveto
            -2 -2 -1 -2 -2 -2 rrcurveto
            return
          </CharString>
          <CharString index="478">
            125 59 -98 callgsubr
            27 134 -54 127 return
          </CharString>
          <CharString index="479">
            94 -101 209 157 rlineto
            -174 vlineto
            96 -54 -71 callsubr
            return
          </CharString>
          <CharString index="480">
            21 49 50 65 vvcurveto
            -34 callgsubr
            return
          </CharString>
          <CharString index="481">
            -36 39 45 -21 53 hhcurveto
            89 62 60 80 hvcurveto
            return
          </CharString>
          <CharString index="482">
            38 14 16 31 28 vvcurveto
            48 -48 41 -68 vhcurveto
            return
          </CharString>
          <CharString index="483">
            122 -30 108 -11 522 callgsubr
            return
          </CharString>
          <CharString index="484">
            59 -20 88 522 568 callsubr
            return
          </CharString>
          <CharString index="485">
            118 425 callsubr
            return
          </CharString>
          <CharString index="486">
            -22 47 rlineto
            -84 493 callsubr
            return
          </CharString>
          <CharString index="487">
            110 469 callgsubr
            return
          </CharString>
          <CharString index="488">
            592 callsubr
            9 -10 return
          </CharString>
          <CharString index="489">
            385 callgsubr
            94 135 return
          </CharString>
          <CharString index="490">
            551 callgsubr
            148 return
          </CharString>
          <CharString index="491">
            -98 callgsubr
            33 return
          </CharString>
          <CharString index="492">
            -52 322 callsubr
            return
          </CharString>
          <CharString index="493">
            339 callgsubr
            rlineto
            return
          </CharString>
          <CharString index="494">
            129 175 129 return
          </CharString>
          <CharString index="495">
            -29 -12 -28 -13 -24 -15 return
          </CharString>
          <CharString index="496">
            228 vlineto
            -84 callsubr
            return
          </CharString>
          <CharString index="497">
            32 198 callgsubr
            return
          </CharString>
          <CharString index="498">
            rmoveto
            3 -34 rlineto
            return
          </CharString>
          <CharString index="499">
            170 51 callgsubr
            return
          </CharString>
          <CharString index="500">
            607 callsubr
            12 -5 -8 9 hvcurveto
            -9 -25 87 callgsubr
            return
          </CharString>
          <CharString index="501">
            48 -67 rlineto
            55 -252 hlineto
            -41 -87 -125 -39 -59 22 -30 callsubr
            return
          </CharString>
          <CharString index="502">
            -453 15 666 hstem
            -217 641 vstem
            -217 582 callgsubr
            endchar
          </CharString>
          <CharString index="503">
            -66 callsubr
            hstemhm
            return
          </CharString>
          <CharString index="504">
            251 callgsubr
            -43 -10 return
          </CharString>
          <CharString index="505">
            -28 callsubr
            398 -256 -65 callsubr
            return
          </CharString>
          <CharString index="506">
            vlineto
            96 -54 -71 callsubr
            641 -101 callgsubr
            -47 66 rlineto
            -811 hlineto
            endchar
          </CharString>
          <CharString index="507">
            48 -67 rlineto
            148 -37 callgsubr
            -148 hlineto
            return
          </CharString>
          <CharString index="508">
            100 153 callgsubr
            vhcurveto
            -92 vlineto
            96 -54 -71 callsubr
            return
          </CharString>
          <CharString index="509">
            -49 45 564 callgsubr
            return
          </CharString>
          <CharString index="510">
            -53 -41 -51 -74 -86 -63 69 123 -75 vhcurveto
            -66 -46 rlineto
            return
          </CharString>
          <CharString index="511">
            -85 vlineto
            -24 -10 -24 -12 -25 -15 4 -52 rcurveline
            69 1 rlineto
            return
          </CharString>
          <CharString index="512">
            186 callsubr
            vhcurveto
            endchar
          </CharString>
          <CharString index="513">
            16 vlineto
            -84 callsubr
            return
          </CharString>
          <CharString index="514">
            rlineto
            521 vlineto
            return
          </CharString>
          <CharString index="515">
            rmoveto
            66 40 65 60 36 33 -24 -44 35 vhcurveto
            -35 -70 -39 -75 -63 -49 rrcurveto
            -40 23 -27 54 54 vvcurveto
            return
          </CharString>
          <CharString index="516">
            -5 47 rlineto
            -291 105 callsubr
          </CharString>
          <CharString index="517">
            -58 14 rlineto
            259 1 vlineto
            -41 26 rlineto
            return
          </CharString>
          <CharString index="518">
            hlineto
            6 -37 29 -42 70 -46 47 38 rcurveline
            return
          </CharString>
          <CharString index="519">
            11 -25 -14 -24 -33 -15 -31 16 -23 38 return
          </CharString>
          <CharString index="520">
            67 rlineto
            -135 30 -106 -86 -111 vvcurveto
            return
          </CharString>
          <CharString index="521">
            -71 49 28 85 65 -10 return
          </CharString>
          <CharString index="522">
            47 -18 61 -42 45 vhcurveto
            return
          </CharString>
          <CharString index="523">
            317 -135 135 return
          </CharString>
          <CharString index="524">
            13 65 5 86 return
          </CharString>
          <CharString index="525">
            -105 callgsubr
            -296 hlineto
            return
          </CharString>
          <CharString index="526">
            95 vhcurveto
            168 216 callsubr
            211 hlineto
            17 35 -47 66 rlineto
            return
          </CharString>
          <CharString index="527">
            hlineto
            hintmask 1001000011000000
            -1 -51 rlineto
            hintmask 1010000011000000
            77 -11 rlineto
            return
          </CharString>
          <CharString index="528">
            509 callgsubr
            -77 vlineto
            -32 -49 return
          </CharString>
          <CharString index="529">
            70 -62 72 -84 -68 -39 -47 -49 -17 5 -18 10 -17 return
          </CharString>
          <CharString index="530">
            -20 65 101 -76 99 -57 34 hstemhm
            return
          </CharString>
          <CharString index="531">
            rmoveto
            110 620 callgsubr
            rlineto
            return
          </CharString>
          <CharString index="532">
            14 -98 callgsubr
            return
          </CharString>
          <CharString index="533">
            457 callgsubr
            -168 hlineto
            return
          </CharString>
          <CharString index="534">
            154 -47 hvcurveto
            return
          </CharString>
          <CharString index="535">
            vlineto
            -27 callgsubr
            hintmask 11000010
            -84 callsubr
            171 -37 callgsubr
            return
          </CharString>
          <CharString index="536">
            362 rmoveto
            313 callsubr
            2 9 1 9 9 vvcurveto
            return
          </CharString>
          <CharString index="537">
            -42 callgsubr
            23 callgsubr
            return
          </CharString>
          <CharString index="538">
            210 -148 rmoveto
            -178 168 rlineto
            -44 hlineto
            -163 -154 86 -72 110 107 rlineto
            return
          </CharString>
          <CharString index="539">
            hlineto
            -84 callsubr
            return
          </CharString>
          <CharString index="540">
            rmoveto
            32 23 17 20 20 15 -17 -21 -24 -24 -23 -38 -14 vhcurveto
            -10 18 -6 16 16 vvcurveto
            return
          </CharString>
          <CharString index="541">
            433 callgsubr
            -146 228 callgsubr
            20 91 callsubr
            return
          </CharString>
          <CharString index="542">
            79 -58 83 -107 33 vhcurveto
            506 callsubr
            return
          </CharString>
          <CharString index="543">
            598 callgsubr
            -70 106 29 537 callsubr
            return
          </CharString>
          <CharString index="544">
            -76 callsubr
            -51 -7 callgsubr
            return
          </CharString>
          <CharString index="545">
            -39 -53 18 -72 63 -88 64 -41 rlinecurve
            60 28 rlineto
            return
          </CharString>
          <CharString index="546">
            228 callgsubr
            187 138 return
          </CharString>
          <CharString index="547">
            hstemhm
            20 116 -116 509 -493 142 return
          </CharString>
          <CharString index="548">
            83 -109 103 84 rlineto
            38 -15 23 -36 -39 vvcurveto
            return
          </CharString>
          <CharString index="549">
            11 -7 11 -5 11 -4 -135 -91 rcurveline
            96 -73 return
          </CharString>
          <CharString index="550">
            hlineto
            17 35 -47 66 rlineto
            -795 hlineto
            return
          </CharString>
          <CharString index="551">
            118 -21 567 callgsubr
            return
          </CharString>
          <CharString index="552">
            233 vlineto
            55 48 51 40 37 hhcurveto
            return
          </CharString>
          <CharString index="553">
            -78 callsubr
            55 -138 hlineto
            -66 44 return
          </CharString>
          <CharString index="554">
            47 41 rlineto
            50 41 29 33 63 vvcurveto
            return
          </CharString>
          <CharString index="555">
            -301 530 256 return
          </CharString>
          <CharString index="556">
            -51 322 callsubr
            return
          </CharString>
          <CharString index="557">
            170 198 rmoveto
            return
          </CharString>
          <CharString index="558">
            -9 rlineto
            101 vlineto
            return
          </CharString>
          <CharString index="559">
            hstemhm
            91 145 return
          </CharString>
          <CharString index="560">
            rmoveto
            158 -182 77 52 -95 163 89 171 -74 48 -155 -186 rlineto
            return
          </CharString>
          <CharString index="561">
            116 157 502 callgsubr
            return
          </CharString>
          <CharString index="562">
            -54 -47 -11 -20 -38 hvcurveto
            -9 10 -4 11 612 callsubr
            return
          </CharString>
          <CharString index="563">
            rmoveto
            -84 callsubr
            return
          </CharString>
          <CharString index="564">
            51 rlineto
            -289 hlineto
            hintmask 1100101001000000
            -57 callsubr
            hintmask 1100110011000000
            -78 callsubr
            285 return
          </CharString>
          <CharString index="565">
            -11 callgsubr
            272 callsubr
            return
          </CharString>
          <CharString index="566">
            171 424 rmoveto
            -28 -4 -24 -6 -19 vhcurveto
            -157 212 rlineto
            167 hlineto
            return
          </CharString>
          <CharString index="567">
            105 132 rmoveto
            372 callsubr
            return
          </CharString>
          <CharString index="568">
            93 -62 73 -69 29 vhcurveto
            66 vlineto
            -84 callsubr
            252 hlineto
            17 35 -47 66 rlineto
            return
          </CharString>
          <CharString index="569">
            vvcurveto
            -60 471 callsubr
            558 callsubr
            return
          </CharString>
          <CharString index="570">
            vhcurveto
            60 vlineto
            -84 callsubr
            278 -37 callgsubr
            -792 hlineto
            endchar
          </CharString>
          <CharString index="571">
            620 callsubr
            -213 -146 123 hlineto
            return
          </CharString>
          <CharString index="572">
            hvcurveto
            389 callsubr
            return
          </CharString>
          <CharString index="573">
            vlineto
            -26 323 callgsubr
            return
          </CharString>
          <CharString index="574">
            -28 46 -56 22 -38 2 rrcurveto
            return
          </CharString>
          <CharString index="575">
            -71 -78 -133 -31 -80 34 return
          </CharString>
          <CharString index="576">
            452 callgsubr
            356 hlineto
            return
          </CharString>
          <CharString index="577">
            523 callsubr
            -90 -35 return
          </CharString>
          <CharString index="578">
            54 -56 85 8 vhcurveto
            return
          </CharString>
          <CharString index="579">
            -78 callsubr
            76 return
          </CharString>
          <CharString index="580">
            184 111 338 callgsubr
            21 387 callgsubr
            return
          </CharString>
          <CharString index="581">
            264 99 494 callsubr
            134 -205 vlineto
            96 -54 -71 callsubr
            return
          </CharString>
          <CharString index="582">
            490 callsubr
            -16 return
          </CharString>
          <CharString index="583">
            rmoveto
            68 -24 111 203 -2 28 -26 22 -50 20 -44 -4 rlinecurve
            endchar
          </CharString>
          <CharString index="584">
            hlineto
            hintmask 10011000
            4 49 rlineto
            hintmask 00111000
            return
          </CharString>
          <CharString index="585">
            217 callsubr
            endchar
          </CharString>
          <CharString index="586">
            -99 -77 hlineto
            -165 -62 -98 -90 return
          </CharString>
          <CharString index="587">
            113 568 callgsubr
            return
          </CharString>
          <CharString index="588">
            130 vlineto
            -84 callsubr
            return
          </CharString>
          <CharString index="589">
            123 -123 334 return
          </CharString>
          <CharString index="590">
            -78 callsubr
            123 hlineto
            return
          </CharString>
          <CharString index="591">
            71 -55 87 -111 26 return
          </CharString>
          <CharString index="592">
            73 -28 61 -5 return
          </CharString>
          <CharString index="593">
            579 28 206 136 -114 103 hstemhm
            -577 621 hintmask 11010000
            return
          </CharString>
          <CharString index="594">
            rcurveline
            1 8 8 1 8 hhcurveto
            605 callsubr
            return
          </CharString>
          <CharString index="595">
            125 59 290 callgsubr
            return
          </CharString>
          <CharString index="596">
            110 87 vlineto
            47 23 -4 -19 26 hvcurveto
            39 -60 71 -64 54 -22 rrcurveto
            return
          </CharString>
          <CharString index="597">
            -19 callsubr
            7 return
          </CharString>
          <CharString index="598">
            rmoveto
            87 callgsubr
            return
          </CharString>
          <CharString index="599">
            hintmask 11010000
            -78 callsubr
            return
          </CharString>
          <CharString index="600">
            -48 -53 26 51 vvcurveto
            return
          </CharString>
          <CharString index="601">
            rmoveto
            533 callsubr
            return
          </CharString>
          <CharString index="602">
            17 34 -51 77 rlineto
            return
          </CharString>
          <CharString index="603">
            rlineto
            207 vlineto
            return
          </CharString>
          <CharString index="604">
            117 -117 382 -358 117 -117 349 hintmask 11100100
            return
          </CharString>
          <CharString index="605">
            -46 -25 -62 -8 -47 19 rlinecurve
            -11 18 -5 15 18 vvcurveto
            50 42 40 return
          </CharString>
          <CharString index="606">
            180 100 130 147 136 -85 119 -136 -25 hvcurveto
            return
          </CharString>
          <CharString index="607">
            103 311 -98 callgsubr
            194 16 callgsubr
            return
          </CharString>
          <CharString index="608">
            -52 35 -28 34 36 vvcurveto
            29 18 15 23 11 10 -4 -9 10 vhcurveto
            return
          </CharString>
          <CharString index="609">
            -30 45 54 -20 return
          </CharString>
          <CharString index="610">
            117 callgsubr
            297 hlineto
            return
          </CharString>
          <CharString index="611">
            538 callgsubr
            183 return
          </CharString>
          <CharString index="612">
            392 170 rmoveto
            41 29 21 25 20 19 -15 -28 -36 -30 return
          </CharString>
          <CharString index="613">
            -179 -46 rlineto
            -20 16 -8 18 15 vvcurveto
            29 27 21 53 vhcurveto
            return
          </CharString>
          <CharString index="614">
            -32 -21 rrcurveto
            -13 13 -7 17 16 vvcurveto
            21 13 22 24 10 vhcurveto
            return
          </CharString>
          <CharString index="615">
            -90 90 -78 86 42 40 18 36 36 return
          </CharString>
          <CharString index="616">
            -42 42 178 102 603 callgsubr
            return
          </CharString>
          <CharString index="617">
            vvcurveto
            337 callgsubr
            vhcurveto
            return
          </CharString>
          <CharString index="618">
            vlineto
            96 -54 -71 callsubr
            241 vlineto
            return
          </CharString>
          <CharString index="619">
            -21 47 rlineto
            -85 493 callsubr
            return
          </CharString>
          <CharString index="620">
            396 callsubr
            53 138 return
          </CharString>
          <CharString index="621">
            295 -47 574 callsubr
            return
          </CharString>
          <CharString index="622">
            18 -73 63 -88 64 -40 rrcurveto
            return
          </CharString>
          <CharString index="623">
            -129 148 -98 137 return
          </CharString>
          <CharString index="624">
            108 71 66 -7 59 -93 return
          </CharString>
          <CharString index="625">
            -137 100 -119 115 return
          </CharString>
          <CharString index="626">
            101 -99.5 return
          </CharString>
          <CharString index="627">
            160 326 161 return
          </CharString>
          <CharString index="628">
            -6 32 rlineto
            -267 hlineto
            return
          </CharString>
          <CharString index="629">
            -255 hlineto
            -40 -79 return
          </CharString>
          <CharString index="630">
            rlinecurve
            -112 137 return
          </CharString>
          <CharString index="631">
            -683 384 rmoveto
            return
          </CharString>
          <CharString index="632">
            -55 -221 rmoveto
            return
          </CharString>
          <CharString index="633">
            -281 150 callgsubr
            return
          </CharString>
          <CharString index="634">
            67 59 rlineto
            -83 83 -43 72 51 vvcurveto
            51 38 43 83 vhcurveto
            return
          </CharString>
          <CharString index="635">
            132 -101 callgsubr
            -48 66 rlineto
            return
          </CharString>
          <CharString index="636">
            481 callsubr
            186 hlineto
            17 35 -47 66 rlineto
            return
          </CharString>
          <CharString index="637">
            -58 114 rlineto
            -37 -42 -69 -37 -48 hhcurveto
            -32 -22 15 24 return
          </CharString>
          <CharString index="638">
            103 127 297 callgsubr
            return
          </CharString>
          <CharString index="639">
            79 31 123 28 -98 callgsubr
            40 124 return
          </CharString>
          <CharString index="640">
            57 28 rlineto
            92 return
          </CharString>
          <CharString index="641">
            hlineto
            hintmask 1001000001100000
            -1 -51 rlineto
            hintmask 1010000001100000
            77 -11 rlineto
            return
          </CharString>
          <CharString index="642">
            -78 callsubr
            341 479 callsubr
            return
          </CharString>
          <CharString index="643">
            -34 hvcurveto
            -29 30 -15 36 36 vvcurveto
            66 50 55 102 vhcurveto
            return
          </CharString>
          <CharString index="644">
            -98 callgsubr
            20 91 callsubr
            return
          </CharString>
          <CharString index="645">
            42 28 hhcurveto
            18 10 -16 -18 -21 -12 -13 -25 -31 hvcurveto
            return
          </CharString>
          <CharString index="646">
            rcurveline
            -70 -1 -26 -43 29 -66 59 -55 60 -26 rlinecurve
            53 return
          </CharString>
          <CharString index="647">
            -150 33 -155 43 107 vvcurveto
            71 72 18 72 vhcurveto
            return
          </CharString>
          <CharString index="648">
            42 -67 rlineto
            370 -73 -83 hlineto
            -174 -72 -100 -94 return
          </CharString>
          <CharString index="649">
            90 -136 102 -62 89 -18 rrcurveto
            -83 vlineto
            -74 48 rlineto
            return
          </CharString>
          <CharString index="650">
            -143 168 -108 141 -1 vhcurveto
            -60 -52 vlineto
            return
          </CharString>
          <CharString index="651">
            -111 -77 rlineto
            280 vlineto
            -48 44 rlineto
            1 -1 vlineto
            return
          </CharString>
          <CharString index="652">
            -234 346 callsubr
            return
          </CharString>
          <CharString index="653">
            -220 -213 rmoveto
            30 -41 rlineto
            return
          </CharString>
          <CharString index="654">
            -177 386 callsubr
            return
          </CharString>
          <CharString index="655">
            vvcurveto
            -97 105 -69 76 23 20 6 return
          </CharString>
          <CharString index="656">
            387 -20 rmoveto
            213 89 rlineto
            return
          </CharString>
          <CharString index="657">
            hlineto
            hintmask 11011000
            -1 -51 return
          </CharString>
          <CharString index="658">
            -50 -48 27 -52 hhcurveto
            return
          </CharString>
          <CharString index="659">
            93 -93 144 return
          </CharString>
          <CharString index="660">
            59 -40 -53 27 -58 hhcurveto
            -48 -48 -15 -33 -35 hvcurveto
            return
          </CharString>
          <CharString index="661">
            0 580 callsubr
            return
          </CharString>
          <CharString index="662">
            -144 -71 -80 -89 -124 143 -100 139 return
          </CharString>
          <CharString index="663">
            -14 45 2 rlinecurve
            573 callsubr
            83 83 -5 36 return
          </CharString>
          <CharString index="664">
            296 callgsubr
            18 return
          </CharString>
          <CharString index="665">
            123 62 512 callsubr
            return
          </CharString>
          <CharString index="666">
            33 30 12 36 32 vvcurveto
            40 -19 34 -30 29 vhcurveto
            return
          </CharString>
          <CharString index="667">
            516 280 callsubr
            return
          </CharString>
          <CharString index="668">
            4 115 169 125 126 122 hstemhm
            return
          </CharString>
          <CharString index="669">
            109 338 callgsubr
            25 132 return
          </CharString>
          <CharString index="670">
            751 122 67 522 callgsubr
            -586 return
          </CharString>
          <CharString index="671">
            -149 97 10 8 9 7 8 7 rlinecurve
            293 return
          </CharString>
          <CharString index="672">
            rmoveto
            197 callsubr
            return
          </CharString>
          <CharString index="673">
            502 callsubr
            57 hhcurveto
            return
          </CharString>
          <CharString index="674">
            -36 50 rlineto
            -284 hlineto
            return
          </CharString>
          <CharString index="675">
            88 -13 618 callgsubr
            return
          </CharString>
          <CharString index="676">
            -88 88 619 callgsubr
            return
          </CharString>
          <CharString index="677">
            -107 -97 -74 -127 hvcurveto
            return
          </CharString>
          <CharString index="678">
            vlineto
            96 -53 -71 callsubr
            return
          </CharString>
          <CharString index="679">
            417 callgsubr
            110 return
          </CharString>
          <CharString index="680">
            204 -166 return
          </CharString>
          <CharString index="681">
            rmoveto
            53 70 rlineto
            return
          </CharString>
          <CharString index="682">
            hlineto
            hintmask 10010010
            -57 callsubr
            hintmask 11000110
            48 -67 rlineto
            return
          </CharString>
          <CharString index="683">
            124 139 113 -42 136 hintmask 11010000
            return
          </CharString>
          <CharString index="684">
            rmoveto
            89 59 203 callsubr
            return
          </CharString>
          <CharString index="685">
            vhcurveto
            -29 19 -43 11 -54 2 -21 -35 rcurveline
            7 return
          </CharString>
          <CharString index="686">
            -47 363 112 18 -97 callgsubr
            return
          </CharString>
          <CharString index="687">
            49 -49 64 -64 82 -82 751 -381 101 return
          </CharString>
          <CharString index="688">
            -9 11 -4 11 12 vvcurveto
            28 24 21 57 vhcurveto
            return
          </CharString>
          <CharString index="689">
            513 callsubr
            -118 128 return
          </CharString>
          <CharString index="690">
            135.5 -114.5 -21 return
          </CharString>
          <CharString index="691">
            -28 -187 -21 701 -97 callgsubr
            return
          </CharString>
          <CharString index="692">
            348 callgsubr
            322 8 callgsubr
            return
          </CharString>
          <CharString index="693">
            vvcurveto
            521 callgsubr
            vhcurveto
            67 59 rlineto
            return
          </CharString>
          <CharString index="694">
            -1 -62 274 callgsubr
            return
          </CharString>
          <CharString index="695">
            -123 145 -128 125 vhcurveto
            endchar
          </CharString>
          <CharString index="696">
            135 52 54 -35 56 -135 rrcurveto
            endchar
          </CharString>
          <CharString index="697">
            -78 callsubr
            133 hlineto
            9 return
          </CharString>
          <CharString index="698">
            hhcurveto
            -54 -52 -26 -46 -37 hvcurveto
            return
          </CharString>
          <CharString index="699">
            hhcurveto
            23 18 -15 -14 9 hvcurveto
            return
          </CharString>
          <CharString index="700">
            -301 531 254 hstem
            return
          </CharString>
          <CharString index="701">
            320 callsubr
            -43 return
          </CharString>
          <CharString index="702">
            rmoveto
            -12 1 -11 3 -12 vhcurveto
            return
          </CharString>
          <CharString index="703">
            vlineto
            13 -51 42 -43 45 -30 return
          </CharString>
          <CharString index="704">
            -134 160 -103 return
          </CharString>
          <CharString index="705">
            -301 665 -20 return
          </CharString>
          <CharString index="706">
            180 198 rmoveto
            return
          </CharString>
          <CharString index="707">
            264 hlineto
            4 49 return
          </CharString>
          <CharString index="708">
            137 -90 -35 return
          </CharString>
          <CharString index="709">
            -28 -22 -33 -18 return
          </CharString>
          <CharString index="710">
            42 -12 rrcurveto
            endchar
          </CharString>
          <CharString index="711">
            hlineto
            hintmask 1100111010000000
            -57 callsubr
            hintmask 1110011010000000
            return
          </CharString>
          <CharString index="712">
            -100 -186 rmoveto
            -41 52 10 73 51 37 return
          </CharString>
          <CharString index="713">
            rlineto
            1 -1 vlineto
            -60 -2 -65 -13 -52 -20 return
          </CharString>
          <CharString index="714">
            317 callsubr
            14 return
          </CharString>
          <CharString index="715">
            620 callsubr
            -193 -151 103 hlineto
            return
          </CharString>
          <CharString index="716">
            396 callsubr
            48 91 216 113 return
          </CharString>
          <CharString index="717">
            -6 136 101 94 127 115 hstem
            return
          </CharString>
          <CharString index="718">
            -313 hlineto
            -38 -84 -97 -33 -68 18 rrcurveto
            return
          </CharString>
          <CharString index="719">
            12 275 callsubr
            270 hlineto
            return
          </CharString>
          <CharString index="720">
            15 -43 rlineto
            174 23 57 84 59 vvcurveto
            return
          </CharString>
          <CharString index="721">
            vlineto
            -45 47 rlineto
            -21 45 43 -8 39 hhcurveto
            return
          </CharString>
          <CharString index="722">
            -98 callgsubr
            374 135 return
          </CharString>
          <CharString index="723">
            -35 -34 -19 -46 -52 vvcurveto
            -162 182 return
          </CharString>
          <CharString index="724">
            -124 103 108 -78 99 hhcurveto
            endchar
          </CharString>
          <CharString index="725">
            rmoveto
            30 -42 rlineto
            return
          </CharString>
          <CharString index="726">
            135 116 return
          </CharString>
          <CharString index="727">
            48 -67 rlineto
            57 return
          </CharString>
          <CharString index="728">
            37 42 rlineto
            hintmask 10101011
            -6 23 rlineto
            return
          </CharString>
          <CharString index="729">
            -414 108 148 114 return
          </CharString>
          <CharString index="730">
            269 hstem
            43 179 vstem
            43 return
          </CharString>
          <CharString index="731">
            65 83 41 95 5 vhcurveto
            -86 vlineto
            return
          </CharString>
          <CharString index="732">
            -4 -10 -2 -10 -11 vvcurveto
            -73 84 return
          </CharString>
          <CharString index="733">
            76 112 224 117 hstem
            return
          </CharString>
          <CharString index="734">
            -133 166 -113 129 return
          </CharString>
          <CharString index="735">
            -100 hlineto
            -68 2 -70 -25 -47 -53 return
          </CharString>
          <CharString index="736">
            rmoveto
            -81 486 81 vlineto
            endchar
          </CharString>
          <CharString index="737">
            hintmask 100100000000011011111100
            return
          </CharString>
          <CharString index="738">
            100.5 return
          </CharString>
          <CharString index="739">
            203.5 return
          </CharString>
          <CharString index="740">
            176 -93 -176 return
          </CharString>
          <CharString index="741">
            -274 84 -1 -21 return
          </CharString>
          <CharString index="742">
            130 151 135 return
          </CharString>
          <CharString index="743">
            hintmask 101000000011011111000000
            return
          </CharString>
          <CharString index="744">
            129 -129 return
          </CharString>
          <CharString index="745">
            3 hlineto
            2 -1 rlineto
            return
          </CharString>
          <CharString index="746">
            116 -52 52 return
          </CharString>
          <CharString index="747">
            rmoveto
            54 -33 40 65 55 hhcurveto
            20 19 -8 -12 22 hvcurveto
            -37 vlineto
            -33 -42 -56 -22 -34 2 rrcurveto
            return
          </CharString>
          <CharString index="748">
            -60 -9 -55 2 -46 11 rrcurveto
            41 42 21 47 47 vvcurveto
            return
          </CharString>
          <CharString index="749">
            124 106 140 -132 115 hintmask 11110000
            return
          </CharString>
          <CharString index="750">
            vlineto
            134 -100 115 -171 vhcurveto
            return
          </CharString>
          <CharString index="751">
            -551 rmoveto
            3 -35 rlineto
            295 hlineto
            return
          </CharString>
          <CharString index="752">
            52 107 rlineto
            62 -63 -81 36 -87 hhcurveto
            return
          </CharString>
          <CharString index="753">
            -48 -74 -111 -41 -62 26 rrcurveto
            return
          </CharString>
          <CharString index="754">
            459 297 hstem
            26 110 return
          </CharString>
          <CharString index="755">
            hintmask 0111101001000000
            return
          </CharString>
          <CharString index="756">
            hintmask 1010001101111000
            return
          </CharString>
          <CharString index="757">
            hintmask 1100110011111000
            return
          </CharString>
          <CharString index="758">
            hintmask 1011010110000000
            return
          </CharString>
          <CharString index="759">
            rlineto
            183 return
          </CharString>
        <CharString name=".notdef">
          -104 23 99 239 97 hstem
          47 90 239 89 vstem
          47 458 rmoveto
          -435 418 435 vlineto
          -89 -336 rmoveto
          -239 239 239 hlineto
          endchar
        </CharString>
        <CharString name="A">
          103 0 56 126 76 hstem
          -20 746 vstem
          -106 callsubr
          endchar
        </CharString>
        <CharString name="AE">
          315 0 91.5 -91.5 202 -20 76 27.5 88 94.5 190 -88 88 -55 55 hstemhm
          424 148 288 9 hintmask 1010010110000000
          270 258 rmoveto
          154 300 rlineto
          -300 vlineto
          -444 -224 rmoveto
          6 -34 rlineto
          272 8 callgsubr
          -88 13 60 118 rlineto
          193 -107 hlineto
          -23 -11 -41 -16 -21 -14 6 -34 rcurveline
          515 2 hlineto
          9 -2 rlineto
          hintmask 0100010110000000
          65 callsubr
          651 callsubr
          -33 -108 -192 -11 rlineto
          204 vlineto
          220 451 callsubr
          -220 -17 rlineto
          210 vlineto
          184 -10 rlineto
          648 callgsubr
          17 -97 rlineto
          84 hlineto
          hintmask 1010010110000000
          417 callsubr
          -2 39 rrcurveto
          -589 hlineto
          hintmask 1010001110000000
          -1 -51 66 -8 -274 -520 rlineto
          hintmask 1010010110000000
          -20 -9 -50 -19 -25 -17 rrcurveto
          endchar
        </CharString>
        <CharString name="Aacute">
          132 callgsubr
          -187 79 3 callgsubr
          -213 -640 -4 callgsubr
          endchar
        </CharString>
        <CharString name="Abreve">
          219 callsubr
          457 84 hstem
          187 89 134 99 vstem
          -106 callsubr
          -68 457 11 callsubr
          endchar
        </CharString>
        <CharString name="Acircumflex">
          103 0 56 126 76 hstem
          -20 746 vstem
          -106 callsubr
          -276 496 104 callsubr
        </CharString>
        <CharString name="Adieresis">
          103 0 56 126 76 hstem
          -20 746 vstem
          -106 callsubr
          -180 471 -94 callgsubr
          endchar
        </CharString>
        <CharString name="Agrave">
          132 callgsubr
          48 6 125 callgsubr
          -211 -430 -4 callgsubr
          endchar
        </CharString>
        <CharString name="Alpha">
          103 0 56 126 76 hstem
          -20 746 vstem
          -106 callsubr
          endchar
        </CharString>
        <CharString name="Alphaacute">
          219 callsubr
          407 -20 hstem
          -20 746 vstem
          -106 callsubr
          -413 174 rmoveto
          53 -21 508 callgsubr
        </CharString>
        <CharString name="Alphaasper">
          219 callsubr
          408 -20 hstemhm
          -20 746 -710 328 callsubr
          hintmask 11110000
          -106 callsubr
          hintmask 11100100
          -284 153 rmoveto
          hintmask 11101000
          -38 callsubr
          hintmask 11100100
          29 callsubr
          -61 46 -67 74 -34 vhcurveto
          endchar
        </CharString>
        <CharString name="Alphaasperacute">
          344 callgsubr
          -161 249 callgsubr
          -145 887 hintmask 11010010
          16 386 callsubr
          hintmask 11100010
          -35 callsubr
          hintmask 11010100
          -113 -254 rmoveto
          hintmask 11011000
          -38 callsubr
          hintmask 11010100
          -48 callgsubr
          -61 46 -67 75 -34 vhcurveto
          hintmask 11010010
          123 callgsubr
        </CharString>
        <CharString name="Alphaasperacuteiotasub">
          260 callsubr
          407 -20 21 -20 hstemhm
          -161 249 callgsubr
          -145 887 648 callsubr
          16 386 callsubr
          hintmask 0111110001000000
          -35 callsubr
          284 353 callsubr
          hintmask 1001101001000000
          -49 callgsubr
          hintmask 0111110001000000
          91 callgsubr
          hintmask 0111101010000000
          -397 635 rmoveto
          hintmask 0111101100000000
          -38 callsubr
          hintmask 0111101010000000
          -48 callgsubr
          -61 46 -67 75 -34 vhcurveto
          648 callsubr
          123 callgsubr
        </CharString>
        <CharString name="Alphaaspergrave">
          344 callgsubr
          -168 249 callgsubr
          -145 894 hintmask 11010010
          -106 callsubr
          -414 346 109 callsubr
          hintmask 11100010
          52 callgsubr
          hintmask 11010100
          525 callsubr
          hintmask 11011000
          -38 callsubr
          hintmask 11010100
          -48 callgsubr
          -61 46 -67 75 -34 vhcurveto
          endchar
        </CharString>
        <CharString name="Alphaaspergraveiotasub">
          260 callsubr
          407 -20 21 -20 hstemhm
          -168 249 callgsubr
          -145 894 648 callsubr
          -106 callsubr
          -414 346 109 callsubr
          hintmask 0111110001000000
          52 callgsubr
          349 353 callgsubr
          hintmask 1001101001000000
          -49 callgsubr
          hintmask 0111110001000000
          91 callgsubr
          hintmask 0111101010000000
          -404 635 rmoveto
          hintmask 0111101100000000
          -38 callsubr
          hintmask 0111101010000000
          -48 callgsubr
          -61 46 -67 75 -34 vhcurveto
          endchar
        </CharString>
        <CharString name="Alphaasperiotasub">
          260 callsubr
          408 -20 hstemhm
          -20 746 -710 328 callsubr
          hintmask 0111111000000000
          -106 callsubr
          -63 -482 -65 callsubr
          hintmask 1001111000000000
          -49 callgsubr
          hintmask 0111111000000000
          91 callgsubr
          hintmask 0111110010000000
          -221 635 rmoveto
          hintmask 0111110100000000
          -38 callsubr
          hintmask 0111110010000000
          29 callsubr
          -61 46 -67 74 -34 vhcurveto
          endchar
        </CharString>
        <CharString name="Alphaaspertilde">
          219 callsubr
          258 483 callgsubr
          -200 926 -811 249 callgsubr
          hintmask 11101100
          -106 callsubr
          -320 258 280 callsubr
          hintmask 11010100
          -29 callgsubr
          hintmask 11100100
          300 callgsubr
          hintmask 11101100
          230 callgsubr
          hintmask 11010001
          630 callgsubr
          hintmask 11010010
          140 callgsubr
          hintmask 11010001
          5 callsubr
          endchar
        </CharString>
        <CharString name="Alphaaspertildeiotasub">
          260 callsubr
          258 483 callgsubr
          -200 926 -811 249 callgsubr
          hintmask 0111110110000000
          -106 callsubr
          -320 258 280 callsubr
          hintmask 0111101010000000
          -29 callgsubr
          hintmask 0111110010000000
          300 callgsubr
          hintmask 0111110110000000
          230 callgsubr
          hintmask 0111101010000000
          257 -740 -65 callsubr
          hintmask 1001101010000000
          -49 callgsubr
          hintmask 0111101010000000
          91 callgsubr
          hintmask 0111101000100000
          -321 476 rmoveto
          648 callsubr
          140 callgsubr
          hintmask 0111101000100000
          5 callsubr
          endchar
        </CharString>
        <CharString name="Alphabreve">
          219 callsubr
          457 84 hstem
          187 89 134 99 vstem
          -106 callsubr
          -68 457 11 callsubr
          endchar
        </CharString>
        <CharString name="Alphagrave">
          219 callsubr
          407 -20 hstem
          -20 746 vstem
          -106 callsubr
          -418 346 rmoveto
          110 620 callgsubr
          177 callgsubr
        </CharString>
        <CharString name="Alphaiotasub">
          260 callsubr
          hstemhm
          -20 746 hintmask 01111100
          -106 callsubr
          -63 -482 -65 callsubr
          hintmask 10011100
          -49 callgsubr
          hintmask 01111100
          91 callgsubr
          endchar
        </CharString>
        <CharString name="Alphalenis">
          219 callsubr
          408 -20 hstemhm
          -20 746 -649 92 hintmask 11110000
          -106 callsubr
          hintmask 11101000
          -401 194 71 callsubr
        </CharString>
        <CharString name="Alphalenisacute">
          344 callgsubr
          -147 873 -815 93 hintmask 11011000
          -106 callsubr
          -404 174 rmoveto
          52 -21 rlineto
          hintmask 11101000
          -35 callsubr
          hintmask 11010100
          279 callsubr
        </CharString>
        <CharString name="Alphalenisacuteiotasub">
          260 callsubr
          407 -20 21 -20 hstemhm
          -147 873 -815 93 hintmask 0111101100000000
          -106 callsubr
          -404 174 rmoveto
          52 -21 rlineto
          hintmask 0111110100000000
          -35 callsubr
          284 353 callsubr
          hintmask 1001101100000000
          -49 callgsubr
          hintmask 0111110100000000
          91 callgsubr
          hintmask 0111101010000000
          -504 142 callsubr
        </CharString>
        <CharString name="Alphalenisgrave">
          344 callgsubr
          -171 897 -840 93 hintmask 11011000
          -106 callsubr
          -414 346 109 callsubr
          hintmask 11101000
          52 callgsubr
          hintmask 11010100
          -179 -180 35 callsubr
        </CharString>
        <CharString name="Alphalenisgraveiotasub">
          260 callsubr
          407 -20 21 -20 hstemhm
          -171 897 -840 93 hintmask 0111101100000000
          -106 callsubr
          -414 346 109 callsubr
          hintmask 0111110100000000
          52 callgsubr
          349 353 callgsubr
          hintmask 1001101100000000
          -49 callgsubr
          hintmask 0111110100000000
          91 callgsubr
          hintmask 0111101010000000
          -528 676 35 callsubr
        </CharString>
        <CharString name="Alphalenisiotasub">
          260 callsubr
          408 -20 hstemhm
          -20 746 -649 92 hintmask 01111110
          -106 callsubr
          -63 -482 -65 callsubr
          hintmask 10011110
          -49 callgsubr
          hintmask 01111110
          91 callgsubr
          hintmask 01111101
          -338 676 71 callsubr
        </CharString>
        <CharString name="Alphalenistilde">
          219 callsubr
          258 483 callgsubr
          -200 926 -753 93 hintmask 11101100
          -106 callsubr
          -320 258 280 callsubr
          hintmask 11010100
          -29 callgsubr
          hintmask 11100100
          300 callgsubr
          hintmask 11101100
          230 callgsubr
          hintmask 11010010
          -185 -222 -33 callsubr
        </CharString>
        <CharString name="Alphalenistildeiotasub">
          260 callsubr
          258 483 callgsubr
          -200 926 -753 93 hintmask 0111110110000000
          -106 callsubr
          -320 258 280 callsubr
          hintmask 0111101010000000
          -29 callgsubr
          hintmask 0111110010000000
          300 callgsubr
          hintmask 0111110110000000
          230 callgsubr
          hintmask 0111101010000000
          257 -740 -65 callsubr
          hintmask 1001101010000000
          -49 callgsubr
          hintmask 0111101010000000
          91 callgsubr
          648 callsubr
          -442 518 -33 callsubr
        </CharString>
        <CharString name="Alphawithmacron">
          219 callsubr
          484 473 callgsubr
          -20 746 hintmask 11101000
          -106 callsubr
          -268 548 469 callsubr
          hintmask 11011000
          47 42 rlineto
          hintmask 11101000
          409 callsubr
        </CharString>
        <CharString name="Alphawithtonos">
          219 callsubr
          406 -20 hstem
          -20 746 vstem
          -106 callsubr
          -412 174 477 callgsubr
        </CharString>
        <CharString name="Amacron">
          219 callsubr
          484 473 callgsubr
          -20 746 hintmask 11101000
          -106 callsubr
          -268 548 469 callsubr
          hintmask 11011000
          47 42 rlineto
          hintmask 11101000
          409 callsubr
        </CharString>
        <CharString name="Aogonek">
          103 634 callsubr
          212 300 callsubr
          hstemhm
          427 103 hintmask 01111000
          272 646 rmoveto
          12 -31 -221 -543 -30 -12 -29 -13 -24 -15 263 callgsubr
          272 -1 callgsubr
          44 118 324 callgsubr
          42 -108 301 callgsubr
          -26 166 callgsubr
          167 hlineto
          -98 -45 -52 -62 -58 vvcurveto
          hintmask 10111000
          -61 471 callsubr
          hintmask 01111000
          123 62 rlineto
          hintmask 10111000
          379 callsubr
          51 52 43 74 42 vhcurveto
          69 8 callgsubr
          -71 28 callgsubr
          -163 -424 -4 callgsubr
          endchar
        </CharString>
        <CharString name="Aring">
          219 callsubr
          452 46 116 75 hstem
          229 60 116 60 vstem
          -106 callsubr
          -71 498 50 callsubr
          endchar
        </CharString>
        <CharString name="Atilde">
          219 callsubr
          525 106 hstem
          -20 746 vstem
          -106 callsubr
          40 444 rmoveto
          -31 callsubr
          endchar
        </CharString>
        <CharString name="B">
          21 callsubr
        </CharString>
        <CharString name="Beta">
          21 callsubr
        </CharString>
        <CharString name="C">
          -10 callsubr
          endchar
        </CharString>
        <CharString name="Cacute">
          -10 callsubr
          -168 777 208 callsubr
        </CharString>
        <CharString name="Ccaron">
          -10 callsubr
          -237 851 58 callgsubr
        </CharString>
        <CharString name="Ccedilla">
          -31 -112 54 42 105 -80 -21 447 243 569 callsubr
          172 110 hintmask 11001110
          368 -16 rmoveto
          205 88 -24 71 -165 -54 rlineto
          -142 -5 -73 116 145 vvcurveto
          90 28 102 70 53 vhcurveto
          57 50 -11 -19 44 hvcurveto
          hintmask 10110110
          24 -125 rlineto
          92 hlineto
          hintmask 10101110
          17 56 8 84 -3 40 rrcurveto
          28 -40 -66 35 -100 hhcurveto
          -227 -109 -180 -177 -148 74 -158 200 -27 hvcurveto
          -48 -57 129 callsubr
          hintmask 11001110
          25 42 rlineto
          5 6 0 6 hhcurveto
          endchar
        </CharString>
        <CharString name="Chi">
          24 callgsubr
        </CharString>
        <CharString name="D">
          57 callsubr
          endchar
        </CharString>
        <CharString name="Dcaron">
          57 callsubr
          116 803 58 callgsubr
        </CharString>
        <CharString name="Dcroat">
          14 callgsubr
        </CharString>
        <CharString name="Delta">
          46 0 102 hstem
          24 608 vstem
          24 76 rmoveto
          29 -76 rlineto
          545 hlineto
          34 86 -254 596 -130 -36 12 -30 rlineto
          46 -114 rmoveto
          160 -398 -322 -4 rlineto
          endchar
        </CharString>
        <CharString name="E">
          -93 callgsubr
          endchar
        </CharString>
        <CharString name="Eacute">
          -73 callsubr
          hintmask 10101010
          180 761 3 callgsubr
          hintmask 10100110
          -380 -291 88 callsubr
        </CharString>
        <CharString name="Ecaron">
          -93 callgsubr
          73 177 58 callgsubr
        </CharString>
        <CharString name="Ecircumflex">
          -93 callgsubr
          70 96 104 callsubr
        </CharString>
        <CharString name="Edieresis">
          -93 callgsubr
          166 71 -94 callgsubr
          endchar
        </CharString>
        <CharString name="Edotaccent">
          -93 callgsubr
          283 71 -13 callsubr
        </CharString>
        <CharString name="Egrave">
          -73 callsubr
          hintmask 10101010
          415 688 125 callgsubr
          hintmask 10100110
          -378 -81 88 callsubr
        </CharString>
        <CharString name="Emacron">
          -96 callgsubr
          84 89 -47 47 140 callsubr
          hintmask 1010011010000000
          0 callsubr
          hintmask 0110101010000000
          65 callsubr
          651 callgsubr
          61 callsubr
          hintmask 1010101001000000
          201 callgsubr
          651 callgsubr
          -2 callgsubr
          hintmask 1011001010000000
          17 -99 rlineto
          84 hlineto
          651 callgsubr
          -15 callgsubr
          78 148 469 callsubr
          648 callgsubr
          47 42 rlineto
          651 callgsubr
          409 callsubr
        </CharString>
        <CharString name="Eogonek">
          1 -275 84 -1 -21 213 89.5 196 88 94.5 190 -84.5 84.5 -55.5 55.5 140 callsubr
          -152 103 hintmask 1011001101000000
          37 607 rmoveto
          74 -9 rlineto
          -525 -72 callgsubr
          446 hlineto
          -100 -45 -52 -62 -59 vvcurveto
          -61 471 callsubr
          hintmask 0111010100000000
          123 62 rlineto
          hintmask 1011010101000000
          379 callsubr
          51 53 44 75 42 vhcurveto
          -2 1 8 53 6 89 -2 56 rlinecurve
          -84 6 61 callsubr
          hintmask 0111010010000000
          201 callgsubr
          hintmask 0111010100000000
          -2 callgsubr
          hintmask 0111100100000000
          17 -99 rlineto
          84 hlineto
          hintmask 0111010100000000
          -15 callgsubr
          endchar
        </CharString>
        <CharString name="Epsilon">
          -93 callgsubr
          endchar
        </CharString>
        <CharString name="Epsilonacute">
          5 callgsubr
          -222 -226 rmoveto
          53 -21 rlineto
          hintmask 1010001100000000
          508 callgsubr
        </CharString>
        <CharString name="Epsilonasper">
          -96 callgsubr
          8 -20 hstemhm
          -174 328 callsubr
          141 -7 callsubr
          hintmask 1010100011000000
          -15 callgsubr
          -92 -247 rmoveto
          hintmask 1010100101000000
          -38 callsubr
          hintmask 1010001011000000
          29 callsubr
          hintmask 1010100011000000
          -61 46 -67 74 -34 vhcurveto
          endchar
        </CharString>
        <CharString name="Epsilonasperacute">
          -96 callgsubr
          7 618 callgsubr
          -352 249 callgsubr
          318 520 callgsubr
          hintmask 1010100000100000
          -175 386 callsubr
          hintmask 1010001001100000
          -35 callsubr
          -113 -254 rmoveto
          hintmask 1010100010100000
          -38 callsubr
          hintmask 1010000101100000
          -48 callgsubr
          hintmask 1010001001100000
          -61 46 -67 75 -34 vhcurveto
          hintmask 1010010000100000
          268 196 -61 callgsubr
          hintmask 0110100000100000
          65 callsubr
          hintmask 1010100000100000
          61 callsubr
          hintmask 1010100000010000
          201 callgsubr
          hintmask 1010100000100000
          -2 callgsubr
          hintmask 1011000000100000
          17 -99 rlineto
          84 hlineto
          hintmask 1010100000100000
          -15 callgsubr
          endchar
        </CharString>
        <CharString name="Epsilonaspergrave">
          -96 callgsubr
          7 618 callgsubr
          -359 249 callgsubr
          325 520 callgsubr
          hintmask 1010010000100000
          0 callsubr
          hintmask 0110100000100000
          65 callsubr
          hintmask 1010100000100000
          61 callsubr
          hintmask 1010100000010000
          201 callgsubr
          hintmask 1010100000100000
          -2 callgsubr
          hintmask 1011000000100000
          17 -99 rlineto
          84 hlineto
          hintmask 1010100000100000
          -15 callgsubr
          -223 -54 109 callsubr
          hintmask 1010001001100000
          52 callgsubr
          525 callsubr
          hintmask 1010100010100000
          -38 callsubr
          hintmask 1010000101100000
          -48 callgsubr
          hintmask 1010001001100000
          -61 46 -67 75 -34 vhcurveto
          endchar
        </CharString>
        <CharString name="Epsilongrave">
          5 callgsubr
          -227 -54 424 callsubr
          hintmask 1010001100000000
          177 callgsubr
        </CharString>
        <CharString name="Epsilonlenis">
          -96 callgsubr
          8 -20 hstemhm
          -114 92 133 520 callgsubr
          hintmask 1010010010000000
          0 callsubr
          hintmask 0110100010000000
          65 callsubr
          hintmask 1010100010000000
          61 callsubr
          hintmask 1010100001000000
          201 callgsubr
          hintmask 1010100010000000
          -2 callgsubr
          hintmask 1011000010000000
          17 -99 rlineto
          84 hlineto
          648 callgsubr
          -15 callgsubr
          -210 -206 rmoveto
          30 -41 rlineto
          hintmask 1010001110000000
          437 callsubr
          648 callgsubr
          247 callsubr
        </CharString>
        <CharString name="Epsilonlenisacute">
          -96 callgsubr
          7 618 callgsubr
          -280 93 298 -7 callsubr
          hintmask 1010100001000000
          -15 callgsubr
          -213 -226 rmoveto
          52 -21 rlineto
          hintmask 1010001011000000
          -35 callsubr
          546 callsubr
          hintmask 1010000111000000
          74 34 47 67 61 vvcurveto
          40 -25 41 -52 -7 callgsubr
          hintmask 1010001011000000
          247 callsubr
        </CharString>
        <CharString name="Epsilonlenisgrave">
          -96 callgsubr
          7 618 callgsubr
          -305 93 323 -7 callsubr
          hintmask 1010100001000000
          -15 callgsubr
          -223 -54 109 callsubr
          hintmask 1010001011000000
          52 callgsubr
          -179 -180 rmoveto
          30 -41 rlineto
          hintmask 1010000111000000
          115 callgsubr
          hintmask 1010001011000000
          -2 111 callsubr
        </CharString>
        <CharString name="Epsilonwithtonos">
          -96 callgsubr
          6 -20 140 callsubr
          hintmask 1010010100000000
          0 callsubr
          hintmask 0110100100000000
          65 callsubr
          hintmask 1010100100000000
          61 callsubr
          hintmask 1010100010000000
          201 callgsubr
          hintmask 1010100100000000
          -2 callgsubr
          hintmask 1011000100000000
          17 -99 rlineto
          84 hlineto
          hintmask 1010100100000000
          -15 callgsubr
          -221 -226 rmoveto
          52 -22 rlineto
          hintmask 1010001100000000
          -84 callgsubr
          endchar
        </CharString>
        <CharString name="Eta">
          19 callsubr
        </CharString>
        <CharString name="Etaacute">
          188 0 23 callgsubr
          7 -20 hstemhm
          111 348 callsubr
          hintmask 10001011
          -5 callgsubr
          hintmask 01001011
          246 callgsubr
          hintmask 10001011
          -93 callsubr
          hintmask 10010011
          -1 -51 rlineto
          hintmask 10100011
          164 callsubr
          hintmask 10001011
          -18 callgsubr
          hintmask 10010011
          -1 -51 rlineto
          hintmask 10100011
          22 callsubr
          hintmask 10001011
          -28 callsubr
          -212 400 rmoveto
          53 -21 rlineto
          hintmask 10000111
          508 callgsubr
        </CharString>
        <CharString name="Etaasper">
          188 0 23 callgsubr
          8 -20 hstemhm
          -176 328 callsubr
          143 348 callsubr
          hintmask 1000100011000000
          -5 callgsubr
          hintmask 0100100011000000
          246 callgsubr
          hintmask 1000100011000000
          -93 callsubr
          hintmask 1001000011000000
          -1 -51 rlineto
          hintmask 1010000011000000
          164 callsubr
          hintmask 1000100011000000
          215 vlineto
          30 12 29 14 25 15 -6 32 rcurveline
          -306 420 callsubr
          -523 vlineto
          hintmask 1000100011000000
          -28 callsubr
          hintmask 1000100111000000
          -82 379 rmoveto
          hintmask 1000101011000000
          -38 callsubr
          649 callgsubr
          29 callsubr
          hintmask 1000100111000000
          -61 46 -67 74 -34 vhcurveto
          endchar
        </CharString>
        <CharString name="Etaasperacute">
          187 489 callgsubr
          -354 249 callgsubr
          320 348 callsubr
          hintmask 1000100001100000
          547 callsubr
          hintmask 1000010011100000
          -35 callsubr
          -113 -254 rmoveto
          hintmask 1000100101100000
          -38 callsubr
          hintmask 1000001011100000
          -48 callgsubr
          hintmask 1000010011100000
          -61 46 -67 75 -34 vhcurveto
          hintmask 1000100001100000
          259 -379 -26 callsubr
          hintmask 0100100001100000
          246 callgsubr
          hintmask 1000100001100000
          -93 callsubr
          hintmask 1001000001100000
          -1 -51 rlineto
          hintmask 1010000001100000
          164 callsubr
          hintmask 1000100001100000
          215 vlineto
          30 12 29 14 25 15 -6 32 rcurveline
          -306 534 callsubr
          -523 vlineto
          hintmask 1000100001100000
          248 callgsubr
        </CharString>
        <CharString name="Etaasperacuteiotasub">
          187 430 callsubr
          7 -20 21 -20 hstemhm
          -354 249 callgsubr
          320 348 callsubr
          hintmask 0111000100001100
          547 callsubr
          hintmask 0111000010001100
          -35 callsubr
          544 353 callsubr
          hintmask 1001000100001100
          -49 callgsubr
          hintmask 0111000010001100
          91 callgsubr
          hintmask 0111000100011100
          -657 635 rmoveto
          hintmask 0111000100101100
          -38 callsubr
          hintmask 0111000001011100
          -48 callgsubr
          hintmask 0111000100011100
          -61 46 -67 75 -34 vhcurveto
          hintmask 0111000100001100
          259 -379 -26 callsubr
          hintmask 0110100100001100
          246 callgsubr
          hintmask 0111000100001100
          -93 callsubr
          hintmask 0111001000001100
          -1 -51 rlineto
          hintmask 0111010000001100
          164 callsubr
          hintmask 0111000100001100
          215 vlineto
          30 12 29 14 25 15 -6 32 rcurveline
          -306 534 callgsubr
          -523 vlineto
          hintmask 0111000100001100
          248 callgsubr
        </CharString>
        <CharString name="Etaaspergrave">
          187 489 callgsubr
          -361 249 callgsubr
          327 348 callsubr
          hintmask 1000100001100000
          557 callgsubr
          hintmask 1000010011100000
          52 callgsubr
          525 callsubr
          hintmask 1000100101100000
          -38 callsubr
          hintmask 1000001011100000
          -48 callgsubr
          hintmask 1000010011100000
          -61 46 -67 75 -34 vhcurveto
          hintmask 1000100001100000
          266 -379 -26 callsubr
          hintmask 0100100001100000
          246 callgsubr
          hintmask 1000100001100000
          -93 callsubr
          hintmask 1001000001100000
          -1 -51 rlineto
          hintmask 1010000001100000
          164 callsubr
          hintmask 1000100001100000
          215 vlineto
          30 12 29 14 25 15 -6 32 rcurveline
          -306 534 callsubr
          -523 vlineto
          hintmask 1000100001100000
          248 callgsubr
        </CharString>
        <CharString name="Etaaspergraveiotasub">
          187 430 callsubr
          7 -20 21 -20 hstemhm
          -361 249 callgsubr
          327 348 callsubr
          hintmask 0111000100001100
          557 callgsubr
          hintmask 0111000010001100
          52 callgsubr
          609 353 callgsubr
          hintmask 1001000100001100
          -49 callgsubr
          hintmask 0111000010001100
          91 callgsubr
          hintmask 0111000100011100
          -664 635 rmoveto
          hintmask 0111000100101100
          -38 callsubr
          hintmask 0111000001011100
          -48 callgsubr
          hintmask 0111000100011100
          -61 46 -67 75 -34 vhcurveto
          hintmask 0111000100001100
          266 -379 -26 callsubr
          hintmask 0110100100001100
          246 callgsubr
          hintmask 0111000100001100
          -93 callsubr
          hintmask 0111001000001100
          -1 -51 rlineto
          hintmask 0111010000001100
          164 callsubr
          hintmask 0111000100001100
          215 vlineto
          30 12 29 14 25 15 -6 32 rcurveline
          -306 534 callgsubr
          -523 vlineto
          hintmask 0111000100001100
          248 callgsubr
        </CharString>
        <CharString name="Etaasperiotasub">
          408 callgsubr
          8 -20 hstemhm
          -176 328 callsubr
          143 348 callsubr
          hintmask 0111000100011000
          -5 callgsubr
          hintmask 0110100100011000
          246 callgsubr
          hintmask 0111000100011000
          -93 callsubr
          hintmask 0111001000011000
          -1 -51 rlineto
          hintmask 0111010000011000
          164 callsubr
          hintmask 0111000100011000
          215 vlineto
          30 12 29 14 25 15 -6 32 rcurveline
          -306 420 callgsubr
          -523 vlineto
          hintmask 0111000100011000
          398 callsubr
          hintmask 1001000100011000
          -49 callgsubr
          hintmask 0111000100011000
          91 callgsubr
          hintmask 0111000100111000
          -480 635 rmoveto
          hintmask 0111000101011000
          -38 callsubr
          hintmask 0111000010111000
          29 callsubr
          hintmask 0111000100111000
          -61 46 -67 74 -34 vhcurveto
          endchar
        </CharString>
        <CharString name="Etaaspertilde">
          187 0 370 -86 86 146 185 callgsubr
          -277 249 callgsubr
          243 348 callsubr
          hintmask 1010000100011000
          -92 446 callgsubr
          hintmask 1000000010011000
          -45 17 rlineto
          hintmask 1001000000011000
          -29 callgsubr
          hintmask 1010001000011000
          300 callgsubr
          hintmask 1010000100011000
          230 callgsubr
          hintmask 1000001000111000
          630 callgsubr
          hintmask 1000001001011000
          140 callgsubr
          hintmask 1000001000111000
          5 callsubr
          hintmask 1000001000011000
          182 -220 -26 callsubr
          hintmask 0100001000011000
          246 callgsubr
          hintmask 1000001000011000
          -93 callsubr
          hintmask 1000010000011000
          -1 -51 rlineto
          hintmask 1000100000011000
          164 callsubr
          hintmask 1000001000011000
          -18 callgsubr
          hintmask 1000010000011000
          -1 -51 rlineto
          hintmask 1000100000011000
          22 callsubr
          hintmask 1000001000011000
          248 callgsubr
        </CharString>
        <CharString name="Etaaspertildeiotasub">
          187 -42 callgsubr
          370 -86 86 146 185 callgsubr
          -277 249 callgsubr
          243 348 callsubr
          hintmask 0111010000100011
          -92 446 callgsubr
          hintmask 0111000000010011
          -45 17 rlineto
          hintmask 0111001000000011
          -29 callgsubr
          hintmask 0111010001000011
          300 callgsubr
          hintmask 0111010000100011
          230 callgsubr
          hintmask 0111000001000011
          516 -740 -65 callsubr
          hintmask 1001000001000011
          -49 callgsubr
          hintmask 0111000001000011
          91 callgsubr
          hintmask 0111000001000111
          -580 476 rmoveto
          hintmask 0111000001001011
          140 callgsubr
          hintmask 0111000001000111
          5 callsubr
          hintmask 0111000001000011
          182 -220 -26 callsubr
          hintmask 0110100001000011
          246 callgsubr
          hintmask 0111000001000011
          -93 callsubr
          hintmask 0111000010000011
          -1 -51 rlineto
          hintmask 0111000100000011
          164 callsubr
          hintmask 0111000001000011
          -18 callgsubr
          hintmask 0111000010000011
          -1 -51 rlineto
          hintmask 0111000100000011
          22 callsubr
          hintmask 0111000001000011
          248 callgsubr
        </CharString>
        <CharString name="Etagrave">
          187 0 23 callgsubr
          7 -20 hstemhm
          111 348 callsubr
          hintmask 10001011
          -5 callgsubr
          hintmask 01001011
          246 callgsubr
          hintmask 10001011
          -93 callsubr
          hintmask 10010011
          -1 -51 rlineto
          hintmask 10100011
          164 callsubr
          hintmask 10001011
          -18 callgsubr
          hintmask 10010011
          -1 -51 rlineto
          hintmask 10100011
          22 callsubr
          hintmask 10001011
          -28 callsubr
          -217 572 424 callsubr
          hintmask 10000111
          177 callgsubr
        </CharString>
        <CharString name="Etaiotasub">
          408 callgsubr
          hstemhm
          111 348 callsubr
          hintmask 0111000111000000
          -5 callgsubr
          hintmask 0110100111000000
          246 callgsubr
          hintmask 0111000111000000
          -93 callsubr
          hintmask 0111001011000000
          -1 -51 rlineto
          hintmask 0111010011000000
          164 callsubr
          hintmask 0111000111000000
          -18 callgsubr
          hintmask 0111001011000000
          -1 -51 rlineto
          hintmask 0111010011000000
          22 callsubr
          hintmask 0111000111000000
          398 callsubr
          hintmask 1001000111000000
          -49 callgsubr
          hintmask 0111000111000000
          91 callgsubr
          endchar
        </CharString>
        <CharString name="Etalenis">
          188 0 23 callgsubr
          8 -20 hstemhm
          -116 92 135 348 callsubr
          hintmask 1000100110000000
          -5 callgsubr
          hintmask 0100100110000000
          246 callgsubr
          hintmask 1000100110000000
          -93 callsubr
          hintmask 1001000110000000
          -1 -51 rlineto
          hintmask 1010000110000000
          164 callsubr
          hintmask 1000100110000000
          -18 callgsubr
          hintmask 1001000110000000
          -1 -51 rlineto
          hintmask 1010000110000000
          22 callsubr
          hintmask 1000100110000000
          -28 callsubr
          hintmask 1000011110000000
          -200 420 71 callsubr
        </CharString>
        <CharString name="Etalenisacute">
          188 489 callgsubr
          -282 93 300 348 callsubr
          hintmask 1000100011000000
          -5 callgsubr
          hintmask 0100100011000000
          246 callgsubr
          hintmask 1000100011000000
          -93 callsubr
          hintmask 1001000011000000
          -1 -51 rlineto
          hintmask 1010000011000000
          164 callsubr
          hintmask 1000100011000000
          215 vlineto
          30 12 29 14 25 15 -6 32 rcurveline
          -306 420 callsubr
          -523 vlineto
          hintmask 1000100011000000
          -28 callsubr
          -203 400 rmoveto
          52 -21 rlineto
          649 callgsubr
          -35 callsubr
          546 callsubr
          hintmask 1000001111000000
          74 34 47 67 61 vvcurveto
          40 -25 41 -52 -7 callgsubr
          649 callgsubr
          247 callsubr
        </CharString>
        <CharString name="Etalenisacuteiotasub">
          408 callgsubr
          7 -20 21 -20 hstemhm
          -282 93 300 348 callsubr
          hintmask 0111000100011000
          -5 callgsubr
          hintmask 0110100100011000
          246 callgsubr
          hintmask 0111000100011000
          -93 callsubr
          hintmask 0111001000011000
          -1 -51 rlineto
          hintmask 0111010000011000
          164 callsubr
          hintmask 0111000100011000
          215 vlineto
          30 12 29 14 25 15 -6 32 rcurveline
          -306 420 callgsubr
          -523 vlineto
          hintmask 0111000100011000
          -28 callsubr
          -203 400 rmoveto
          52 -21 rlineto
          hintmask 0111000010011000
          -35 callsubr
          544 353 callsubr
          hintmask 1001000100011000
          -49 callgsubr
          hintmask 0111000010011000
          91 callgsubr
          hintmask 0111000001111000
          -764 142 callsubr
        </CharString>
        <CharString name="Etalenisgrave">
          188 489 callgsubr
          -307 93 325 348 callsubr
          hintmask 1000100011000000
          -5 callgsubr
          hintmask 0100100011000000
          246 callgsubr
          hintmask 1000100011000000
          -93 callsubr
          hintmask 1001000011000000
          -1 -51 rlineto
          hintmask 1010000011000000
          164 callsubr
          hintmask 1000100011000000
          215 vlineto
          30 12 29 14 25 15 -6 32 rcurveline
          -306 420 callsubr
          -523 vlineto
          hintmask 1000100011000000
          -28 callsubr
          -213 572 109 callsubr
          649 callgsubr
          52 callgsubr
          -179 -180 rmoveto
          30 -41 rlineto
          hintmask 1000001111000000
          115 callgsubr
          649 callgsubr
          -2 111 callsubr
        </CharString>
        <CharString name="Etalenisgraveiotasub">
          408 callgsubr
          7 -20 21 -20 hstemhm
          -307 93 325 348 callsubr
          hintmask 0111000100011000
          -5 callgsubr
          hintmask 0110100100011000
          246 callgsubr
          hintmask 0111000100011000
          -93 callsubr
          hintmask 0111001000011000
          -1 -51 rlineto
          hintmask 0111010000011000
          164 callsubr
          hintmask 0111000100011000
          215 vlineto
          30 12 29 14 25 15 -6 32 rcurveline
          -306 420 callgsubr
          -523 vlineto
          hintmask 0111000100011000
          -28 callsubr
          -213 572 109 callsubr
          hintmask 0111000010011000
          52 callgsubr
          609 353 callgsubr
          hintmask 1001000100011000
          -49 callgsubr
          hintmask 0111000010011000
          91 callgsubr
          hintmask 0111000001111000
          -788 676 35 callsubr
        </CharString>
        <CharString name="Etalenisiotasub">
          408 callgsubr
          8 -20 hstemhm
          -116 92 135 348 callsubr
          hintmask 0111000100110000
          -5 callgsubr
          hintmask 0110100100110000
          246 callgsubr
          hintmask 0111000100110000
          -93 callsubr
          hintmask 0111001000110000
          -1 -51 rlineto
          hintmask 0111010000110000
          164 callsubr
          hintmask 0111000100110000
          -18 callgsubr
          hintmask 0111001000110000
          -1 -51 rlineto
          hintmask 0111010000110000
          22 callsubr
          hintmask 0111000100110000
          398 callsubr
          hintmask 1001000100110000
          -49 callgsubr
          hintmask 0111000100110000
          91 callgsubr
          hintmask 0111000011110000
          -598 676 71 callsubr
        </CharString>
        <CharString name="Etalenistilde">
          188 0 370 -86 86 146 185 callgsubr
          -219 93 237 348 callsubr
          hintmask 1000001000110000
          -5 callgsubr
          hintmask 0100001000110000
          246 callgsubr
          hintmask 1000001000110000
          -93 callsubr
          hintmask 1000010000110000
          -1 -51 rlineto
          hintmask 1000100000110000
          164 callsubr
          hintmask 1000001000110000
          -18 callgsubr
          hintmask 1000010000110000
          -1 -51 rlineto
          hintmask 1000100000110000
          22 callsubr
          hintmask 1000001000110000
          -28 callsubr
          hintmask 1010000100110000
          -118 484 -41 callsubr
          hintmask 1000000010110000
          -45 17 rlineto
          hintmask 1001000000110000
          -29 callgsubr
          hintmask 1010001000110000
          300 callgsubr
          hintmask 1010000100110000
          230 callgsubr
          hintmask 1000001001110000
          -185 -222 -33 callsubr
        </CharString>
        <CharString name="Etalenistildeiotasub">
          188 -42 callgsubr
          370 -86 86 146 185 callgsubr
          -219 93 237 348 callsubr
          hintmask 0111000001000110
          -5 callgsubr
          hintmask 0110100001000110
          246 callgsubr
          hintmask 0111000001000110
          -93 callsubr
          hintmask 0111000010000110
          -1 -51 rlineto
          hintmask 0111000100000110
          164 callsubr
          hintmask 0111000001000110
          -18 callgsubr
          hintmask 0111000010000110
          -1 -51 rlineto
          hintmask 0111000100000110
          22 callsubr
          hintmask 0111000001000110
          -28 callsubr
          hintmask 0111010000100110
          -118 484 -41 callsubr
          hintmask 0111000000010110
          -45 17 rlineto
          hintmask 0111001000000110
          -29 callgsubr
          hintmask 0111010001000110
          300 callgsubr
          hintmask 0111010000100110
          230 callgsubr
          hintmask 0111000001000110
          516 -740 -65 callsubr
          hintmask 1001000001000110
          -49 callgsubr
          hintmask 0111000001000110
          91 callgsubr
          hintmask 0111000001001110
          -701 518 -33 callsubr
        </CharString>
        <CharString name="Etawithtonos">
          188 0 23 callgsubr
          6 -20 hstemhm
          111 348 callsubr
          hintmask 10001011
          -5 callgsubr
          hintmask 01001011
          246 callgsubr
          hintmask 10001011
          -93 callsubr
          hintmask 10010011
          -1 -51 rlineto
          hintmask 10100011
          164 callsubr
          hintmask 10001011
          -18 callgsubr
          hintmask 10010011
          -1 -51 rlineto
          hintmask 10100011
          22 callsubr
          hintmask 10001011
          -28 callsubr
          -211 400 rmoveto
          52 -22 rlineto
          hintmask 10000111
          -84 callgsubr
          endchar
        </CharString>
        <CharString name="Eth">
          14 callgsubr
        </CharString>
        <CharString name="Euro">
          10 -21 104 -104 290 -65 65 -23 23 74 65 -23 23 175 87 hstemhm
          85 151 hintmask 01001011
          428 -21 rmoveto
          hintmask 10101011
          184 75 -24 69 -145 -40 -102 7 -58 45 -27 69 rlinecurve
          224 hlineto
          hintmask 10011011
          621 callsubr
          -272 hlineto
          -2 17 -1 17 18 vvcurveto
          7 0 8 1 7 vhcurveto
          284 hlineto
          hintmask 10100111
          621 callsubr
          -307 hlineto
          15 75 36 63 52 37 51 5 50 -11 50 -26 13 -96 rcurveline
          73 hlineto
          12 38 11 56 6 59 rrcurveto
          40 -50 -69 22 -79 hhcurveto
          -184 -104 -123 -139 -32 hvcurveto
          -61 hlineto
          -38 -42 6 -23 rlineto
          83 hlineto
          -1 -11 0 -10 -11 vvcurveto
          -14 1 -14 1 -14 vhcurveto
          -78 hlineto
          -37 -42 6 -23 rlineto
          121 hlineto
          hintmask 01001011
          34 -123 100 -103 195 1 rrcurveto
          endchar
        </CharString>
        <CharString name="F">
          -10 0 51 -51 68 -68 72 190 92 110 194 -84.5 84.5 -55.5 55.5 hstemhm
          107 152 -152 375 hintmask 0011001100000000
          33 607 rmoveto
          74 -9 rlineto
          -526 vlineto
          hintmask 1001010100000000
          388 callsubr
          6 -32 rcurveline
          346 496 callgsubr
          hintmask 0101010100000000
          -120 17 rlineto
          199 vlineto
          hintmask 1001010010000000
          223 -10 rlineto
          105 vlineto
          hintmask 1001010100000000
          -223 -16 rlineto
          234 vlineto
          180 -13 rlineto
          hintmask 1001100100000000
          17 -103 rlineto
          84 hlineto
          hintmask 1001010100000000
          13 65 5 90 -2 39 rrcurveto
          -1 hlineto
          -521 hlineto
          endchar
        </CharString>
        <CharString name="G">
          355 callsubr
          hstemhm
          14 155 291 140 hintmask 10010111
          549 callsubr
          hintmask 11000111
          170 vlineto
          hintmask 10100111
          76 16 rlineto
          hintmask 10010111
          77 callsubr
          hintmask 10011011
          24 -112 rlineto
          91 hlineto
          hintmask 10010111
          188 callsubr
          endchar
        </CharString>
        <CharString name="Gamma">
          -48 0 51 -51 68 -68 73 391 194 -84.5 84.5 -55.5 55.5 103 callgsubr
          hintmask 00100110
          38 607 rmoveto
          73 493 callgsubr
          hintmask 10001010
          -83 callsubr
          350 513 callgsubr
          -120 17 rlineto
          512 vlineto
          176 -13 rlineto
          hintmask 10010010
          16 -103 rlineto
          84 hlineto
          hintmask 10001010
          14 67 4 87 -2 40 rrcurveto
          -516 hlineto
          endchar
        </CharString>
        <CharString name="Gbreve">
          355 callsubr
          37 84 619 callgsubr
          22 89 134 99 -53 140 hintmask 1001011100100000
          549 callsubr
          hintmask 1100011100100000
          170 vlineto
          hintmask 1010011100100000
          76 16 rlineto
          hintmask 1001011100100000
          77 callsubr
          hintmask 1001101100100000
          24 -112 rlineto
          91 hlineto
          hintmask 1001011100100000
          188 callsubr
          hintmask 1001011111000000
          -31 735 11 callsubr
          endchar
        </CharString>
        <CharString name="Gcommaaccent">
          355 callsubr
          hstemhm
          14 155 144 108 39 140 hintmask 1001011110000000
          549 callsubr
          hintmask 1100011110000000
          170 vlineto
          hintmask 1010011110000000
          76 16 rlineto
          hintmask 1001011110000000
          77 callsubr
          hintmask 1001101110000000
          24 -112 rlineto
          91 hlineto
          hintmask 1001011110000000
          188 callsubr
          -106 -245 -56 callgsubr
        </CharString>
        <CharString name="H">
          19 callsubr
        </CharString>
        <CharString name="I">
          56 callgsubr
          hintmask 10001010
          34 607 76 callgsubr
        </CharString>
        <CharString name="Iacute">
          56 callgsubr
          hintmask 10000110
          57 761 3 callgsubr
          hintmask 10001010
          -260 -291 76 callgsubr
        </CharString>
        <CharString name="Icircumflex">
          545 callsubr
          -73 909 -313 280 callgsubr
          hintmask 10000101
          34 607 rmoveto
          hintmask 00101001
          22 callsubr
          hintmask 10000011
          -49 callsubr
          hintmask 01000011
          -68 callsubr
          -50 96 rmoveto
          56 -52 147 110 154 -110 53 52 rlineto
          hintmask 00010001
          -151 155 rlineto
          -111 hlineto
          endchar
        </CharString>
        <CharString name="Idieresis">
          56 callgsubr
          hintmask 10001010
          34 607 -54 callgsubr
          46 71 -94 callgsubr
          endchar
        </CharString>
        <CharString name="Idotaccent">
          56 callgsubr
          hintmask 10001010
          34 607 -54 callgsubr
          163 71 -13 callsubr
        </CharString>
        <CharString name="Igrave">
          56 callgsubr
          hintmask 10000110
          292 688 125 callgsubr
          hintmask 10001010
          -258 -81 76 callgsubr
        </CharString>
        <CharString name="Imacron">
          -222 163 callsubr
          68 473 callgsubr
          113 152 hintmask 1000011010000000
          26 790 452 callgsubr
          288 hlineto
          hintmask 1000010110000000
          47 42 rlineto
          hintmask 1000011010000000
          -5 47 rlineto
          -223 235 callsubr
          hintmask 1000101010000000
          10 -183 67 callgsubr
        </CharString>
        <CharString name="Iogonek">
          -234 634 callsubr
          212 51 -51 281 callsubr
          hstemhm
          45 103 -37 152 hintmask 0101010010000000
          34 607 rmoveto
          hintmask 0101100010000000
          77 -11 rlineto
          -523 -72 callgsubr
          163 hlineto
          hintmask 1001001100000000
          -98 -45 -52 -62 -58 vvcurveto
          -61 471 callsubr
          hintmask 0101001010000000
          123 62 rlineto
          hintmask 1001001100000000
          379 callsubr
          51 52 43 74 42 vhcurveto
          hintmask 0101001010000000
          80 hlineto
          hintmask 0110001010000000
          1 51 208 callgsubr
        </CharString>
        <CharString name="Iota">
          56 callgsubr
          hintmask 10001010
          34 607 76 callgsubr
        </CharString>
        <CharString name="Iotaacute">
          490 callgsubr
          103 callgsubr
          hintmask 10000101
          -186 432 rmoveto
          53 -21 rlineto
          hintmask 10000011
          537 callgsubr
          hintmask 10001001
          163 -58 rmoveto
          hintmask 00110001
          22 callsubr
          hintmask 10000101
          -49 callsubr
          hintmask 01000101
          208 callgsubr
        </CharString>
        <CharString name="Iotaasper">
          162 callgsubr
          8 -20 hstemhm
          -177 328 callsubr
          144 152 hintmask 1000100001000000
          34 607 rmoveto
          hintmask 0011000001000000
          22 callsubr
          hintmask 1000010001000000
          -49 callsubr
          hintmask 0100010011000000
          -68 callsubr
          -92 -247 rmoveto
          hintmask 1000010101000000
          -38 callsubr
          hintmask 1000001011000000
          29 callsubr
          hintmask 0100010011000000
          -61 46 -67 74 -34 vhcurveto
          endchar
        </CharString>
        <CharString name="Iotaasperacute">
          490 callgsubr
          21 -20 hstemhm
          -354 249 callgsubr
          320 152 hintmask 1000010000100000
          547 callsubr
          hintmask 1000001001100000
          -35 callsubr
          -113 -254 rmoveto
          hintmask 1000010010100000
          -38 callsubr
          hintmask 1000000101100000
          -48 callgsubr
          hintmask 1000001001100000
          -61 46 -67 75 -34 vhcurveto
          hintmask 1000100000100000
          267 196 rmoveto
          hintmask 0011000000100000
          22 callsubr
          hintmask 1000010000100000
          -49 callsubr
          hintmask 0100010000100000
          208 callgsubr
        </CharString>
        <CharString name="Iotaaspergrave">
          490 callgsubr
          21 -20 hstemhm
          -361 249 callgsubr
          327 152 hintmask 1000010000100000
          557 callgsubr
          hintmask 1000001001100000
          52 callgsubr
          525 callsubr
          hintmask 1000010010100000
          -38 callsubr
          hintmask 1000000101100000
          -48 callgsubr
          hintmask 1000001001100000
          -61 46 -67 75 -34 vhcurveto
          hintmask 1000100000100000
          274 196 rmoveto
          hintmask 0011000000100000
          22 callsubr
          hintmask 1000010000100000
          -49 callsubr
          hintmask 0100010000100000
          208 callgsubr
        </CharString>
        <CharString name="Iotaaspertilde">
          545 callsubr
          443 185 callgsubr
          -278 249 callgsubr
          244 152 hintmask 1000100000001000
          585 callsubr
          rlineto
          hintmask 0100000100001000
          -68 callsubr
          hintmask 1000001000001000
          -1 -51 rlineto
          hintmask 0010010000001000
          22 callsubr
          hintmask 1000100000001000
          -28 callsubr
          hintmask 1001000010001000
          -119 484 -41 callsubr
          hintmask 1000000001001000
          -45 17 rlineto
          hintmask 1000100000001000
          -29 callgsubr
          hintmask 1001000000001000
          300 callgsubr
          hintmask 1001000010001000
          230 callgsubr
          hintmask 1000100000011000
          630 callgsubr
          hintmask 1000100000101000
          140 callgsubr
          hintmask 1000100000011000
          5 callsubr
          endchar
        </CharString>
        <CharString name="Iotabreve">
          162 callgsubr
          57 84 hstemhm
          30 89 -8 152 -10 99 hintmask 1000011101000000
          195 715 11 callsubr
          hintmask 1000101010000000
          -161 -108 67 callgsubr
        </CharString>
        <CharString name="Iotadieresis">
          56 callgsubr
          hintmask 10000110
          83 729 -94 callgsubr
          hintmask 10001010
          -280 -122 76 callgsubr
        </CharString>
        <CharString name="Iotagrave">
          490 callgsubr
          103 callgsubr
          hintmask 10001001
          34 607 rmoveto
          hintmask 00110001
          22 callsubr
          hintmask 10000101
          -49 callsubr
          hintmask 01000101
          -68 callsubr
          -226 -54 424 callsubr
          hintmask 10000011
          177 callgsubr
        </CharString>
        <CharString name="Iotalenis">
          162 callgsubr
          8 -20 hstemhm
          -116 92 135 152 hintmask 1000010110000000
          -174 452 rmoveto
          30 -41 rlineto
          hintmask 1000001110000000
          437 callsubr
          hintmask 1000010110000000
          274 callsubr
          hintmask 1000100110000000
          208 155 rmoveto
          hintmask 0011000110000000
          22 callsubr
          hintmask 1000010110000000
          -49 callsubr
          hintmask 0100010110000000
          208 callgsubr
        </CharString>
        <CharString name="Iotalenisacute">
          490 callgsubr
          21 -20 hstemhm
          -282 93 300 152 hintmask 1000010001000000
          547 callsubr
          hintmask 1000001011000000
          -35 callsubr
          546 callsubr
          hintmask 1000000111000000
          74 34 47 67 61 vvcurveto
          40 -25 41 -52 -7 callgsubr
          hintmask 1000001011000000
          274 callsubr
          hintmask 1000100001000000
          374 155 rmoveto
          hintmask 0011000001000000
          22 callsubr
          hintmask 1000010001000000
          -49 callsubr
          hintmask 0100010001000000
          208 callgsubr
        </CharString>
        <CharString name="Iotalenisgrave">
          490 callgsubr
          21 -20 hstemhm
          -307 93 325 152 hintmask 1000100001000000
          34 607 rmoveto
          hintmask 0011000001000000
          22 callsubr
          hintmask 1000010001000000
          -49 callsubr
          hintmask 0100010001000000
          -68 callsubr
          -222 -54 109 callsubr
          hintmask 1000001011000000
          52 callgsubr
          -179 -180 rmoveto
          30 -41 rlineto
          hintmask 1000000111000000
          115 callgsubr
          hintmask 1000001011000000
          -2 111 callsubr
        </CharString>
        <CharString name="Iotalenistilde">
          545 callsubr
          443 185 callgsubr
          -220 93 238 152 hintmask 1000100000010000
          585 callsubr
          rlineto
          hintmask 0100000100010000
          -68 callsubr
          hintmask 1000001000010000
          -1 -51 rlineto
          hintmask 0010010000010000
          22 callsubr
          hintmask 1000100000010000
          -28 callsubr
          hintmask 1001000010010000
          -119 484 -41 callsubr
          hintmask 1000000001010000
          -45 17 rlineto
          hintmask 1000100000010000
          -29 callgsubr
          hintmask 1001000000010000
          300 callgsubr
          hintmask 1001000010010000
          230 callgsubr
          hintmask 1000100000110000
          -185 -222 -33 callsubr
        </CharString>
        <CharString name="Iotawithmacron">
          162 callgsubr
          84 89 -47 47 103 callgsubr
          hintmask 1000011010000000
          -5 806 469 callsubr
          hintmask 1000010110000000
          47 42 rlineto
          hintmask 1000011010000000
          -5 47 rlineto
          -291 235 callsubr
          hintmask 1000101010000000
          39 -199 67 callgsubr
        </CharString>
        <CharString name="Iotawithtonos">
          162 callgsubr
          6 -20 103 callgsubr
          hintmask 10001001
          34 607 rmoveto
          hintmask 00110001
          22 callsubr
          hintmask 10000101
          -49 callsubr
          hintmask 01000101
          -68 callsubr
          -220 -226 rmoveto
          52 -22 rlineto
          hintmask 10000011
          -84 callgsubr
          endchar
        </CharString>
        <CharString name="J">
          -230 594 64 364 callsubr
          hstemhm
          125 151 hintmask 01010000
          36 607 rmoveto
          hintmask 10010000
          89 -13 rlineto
          -454 vlineto
          -156 -59 -62 -84 -53 vhcurveto
          35 -55 rlineto
          146 58 113 81 176 vvcurveto
          hintmask 00110000
          455 vlineto
          31 13 30 13 25 16 -6 32 rcurveline
          -319 hlineto
          endchar
        </CharString>
        <CharString name="K">
          31 callsubr
        </CharString>
        <CharString name="KORONIS">
          448 callsubr
          hstem
          150 92 vstem
          92 572 -95 callsubr
        </CharString>
        <CharString name="Kappa">
          31 callsubr
        </CharString>
        <CharString name="Kcommaaccent">
          103 0 51 -51 52 -52 63 -63 73 534 255 callgsubr
          86 108 hintmask 10000111
          348 callgsubr
          314 496 callgsubr
          hintmask 00100111
          -84 12 rlineto
          180 vlineto
          41 43 rlineto
          hintmask 10000111
          204 -286 rlineto
          201 hlineto
          hintmask 01000111
          1 52 -62 10 -245 329 187 198 29 11 32 12 22 14 497 callgsubr
          -248 hlineto
          hintmask 10001011
          -1 -51 66 -10 -221 -236 rlineto
          hintmask 10000111
          224 vlineto
          30 12 29 14 25 15 -6 32 rcurveline
          -307 hlineto
          hintmask 00011011
          -1 -51 78 233 callgsubr
          291 -297 -56 callgsubr
        </CharString>
        <CharString name="L">
          -20 0 92 504 280 callgsubr
          167 callgsubr
          endchar
        </CharString>
        <CharString name="Lacute">
          -20 0 92 504 280 callgsubr
          hintmask 10011000
          64 761 3 callgsubr
          hintmask 10101000
          -267 -291 rmoveto
          hintmask 11001000
          77 -11 rlineto
          -523 84 callgsubr
          hintmask 10011000
          501 -89 callgsubr
          endchar
        </CharString>
        <CharString name="Lamda">
          103 0 56 hstem
          -20 747 vstem
          272 646 rmoveto
          12 -32 -220 -541 -30 -12 -29 -14 -25 -15 263 callgsubr
          273 -1 callgsubr
          163 429 160 -419 301 callgsubr
          -25 166 callgsubr
          315 8 callgsubr
          -72 28 callgsubr
          endchar
        </CharString>
        <CharString name="Lcaron">
          -20 0 92 504 280 callgsubr
          206 114 hintmask 10101100
          34 607 rmoveto
          hintmask 11001100
          77 -11 rlineto
          -523 84 callgsubr
          hintmask 10011100
          501 -89 callgsubr
          386 -152 82 callgsubr
        </CharString>
        <CharString name="Lcommaaccent">
          -20 0 92 504 280 callgsubr
          1 108 167 callgsubr
          hintmask 10010100
          197 -923 -56 callgsubr
        </CharString>
        <CharString name="Lslash">
          -4 0 92 504 135 callgsubr
          hstemhm
          127 152 hintmask 10101000
          50 607 rmoveto
          hintmask 11001000
          77 -11 rlineto
          -274 vlineto
          -101 -51 30 -61 71 36 rlineto
          -173 84 callgsubr
          238 vlineto
          124 62 14 52 -17 24 -121 -61 rlineto
          hintmask 10011000
          186 -89 callgsubr
          endchar
        </CharString>
        <CharString name="M">
          10 callsubr
        </CharString>
        <CharString name="Mu">
          10 callsubr
        </CharString>
        <CharString name="N">
          134 callsubr
          337 107 hintmask 10000111
          26 32 -58 callsubr
          endchar
        </CharString>
        <CharString name="NULL">
          -316 endchar
        </CharString>
        <CharString name="Nacute">
          134 callsubr
          337 107 hintmask 10000111
          236 761 3 callgsubr
          -447 -866 -58 callsubr
          endchar
        </CharString>
        <CharString name="Ncaron">
          134 callsubr
          337 107 hintmask 10000111
          26 32 -58 callsubr
          141 803 58 callgsubr
        </CharString>
        <CharString name="Ncommaaccent">
          134 callsubr
          131 108 98 107 hintmask 1000011110000000
          348 callgsubr
          275 496 callgsubr
          hintmask 0100011110000000
          -88 13 rlineto
          285 vlineto
          -15 123 rlineto
          hintmask 0001011110000000
          316 -485 rlineto
          hintmask 1000011110000000
          141 13 4 586 29 12 28 336 callsubr
          -280 hlineto
          hintmask 1000101110000000
          -1 -51 97 -14 rlineto
          -292 vlineto
          15 -127 rlineto
          hintmask 1000011110000000
          -309 483 1 1 rlineto
          -222 hlineto
          hintmask 0010101110000000
          -1 -51 70 31 callgsubr
          hintmask 1000011110000000
          -28 callsubr
          293 -297 -56 callgsubr
        </CharString>
        <CharString name="Ntilde">
          158 346 callsubr
          -65 -21 620 51 -32 32 125 106 hstemhm
          111 109 337 107 hintmask 1000011110000000
          348 callgsubr
          275 496 callgsubr
          hintmask 0100011110000000
          -88 13 rlineto
          285 vlineto
          -15 123 rlineto
          hintmask 0001011110000000
          316 -485 rlineto
          hintmask 1000011110000000
          141 13 4 586 29 12 28 336 callsubr
          -280 hlineto
          hintmask 1000101110000000
          -1 -51 97 -14 rlineto
          -292 vlineto
          15 -127 rlineto
          hintmask 1000011110000000
          -309 483 1 1 rlineto
          -222 hlineto
          hintmask 0010101110000000
          -1 -51 70 31 callgsubr
          hintmask 1000011110000000
          -28 callsubr
          454 670 rmoveto
          -31 callsubr
          endchar
        </CharString>
        <CharString name="Nu">
          134 callsubr
          337 107 hintmask 10000111
          26 32 -58 callsubr
          endchar
        </CharString>
        <CharString name="O">
          -88 callgsubr
          endchar
        </CharString>
        <CharString name="OE">
          332 -15 88 -73 92 -92 202 83.5 88 94.5 190 -88 88 -74 90 619 callgsubr
          268 152 -152 363 hintmask 1001001110000000
          169 333 rmoveto
          98 31 96 55 44 vhcurveto
          9 27 30 4 30 hhcurveto
          32 34 -5 -12 29 hvcurveto
          -479 vlineto
          -10 -24 -29 -5 -28 hhcurveto
          -130 -57 127 133 hvcurveto
          178 -348 rmoveto
          hintmask 0101010110000000
          38 38 4 11 36 hvcurveto
          427 hlineto
          hintmask 0011010110000000
          65 callsubr
          hintmask 0101010110000000
          -33 -108 -192 -10 rlineto
          203 vlineto
          hintmask 0101010101000000
          211 451 callsubr
          hintmask 0101010110000000
          -211 -17 rlineto
          210 vlineto
          184 -10 rlineto
          hintmask 0101100110000000
          17 -97 rlineto
          84 hlineto
          hintmask 0101010110000000
          417 callsubr
          -2 39 rrcurveto
          -420 hlineto
          hintmask 0101001110000000
          11 -35 -38 5 -37 hhcurveto
          -168 -178 -111 -231 hvcurveto
          hintmask 1001001110000000
          -242 170 -105 163 vhcurveto
          endchar
        </CharString>
        <CharString name="Oacute">
          -88 callgsubr
          -153 693 208 callsubr
        </CharString>
        <CharString name="Ocircumflex">
          -88 callgsubr
          -225 686 104 callsubr
        </CharString>
        <CharString name="Odieresis">
          -88 callgsubr
          102 661 -55 callgsubr
        </CharString>
        <CharString name="Ograve">
          -88 callgsubr
          82 620 125 callgsubr
          endchar
        </CharString>
        <CharString name="Ohungarumlaut">
          -88 callgsubr
          14 691 340 callgsubr
          endchar
        </CharString>
        <CharString name="Omacron">
          414 callgsubr
          64 473 callgsubr
          14 520 callsubr
          hintmask 11101100
          342 -20 -103 callgsubr
          -217 738 469 callsubr
          hintmask 11011100
          47 42 rlineto
          hintmask 11101100
          409 callsubr
        </CharString>
        <CharString name="Omega">
          202 callgsubr
          549 callgsubr
          hintmask 01011100
          27 hmoveto
          -97 callsubr
          hintmask 00111100
          18 callgsubr
          hintmask 10011100
          -82 callgsubr
          hintmask 01011100
          -25 callgsubr
          hintmask 00111100
          165 callsubr
          hintmask 01011100
          98 callgsubr
          endchar
        </CharString>
        <CharString name="Omegaacute">
          -1 callsubr
          -129 432 rmoveto
          53 -21 rlineto
          hintmask 01001110
          508 callgsubr
        </CharString>
        <CharString name="Omegaasper">
          202 callgsubr
          -12 -20 hstemhm
          -93 328 callsubr
          27 165 callgsubr
          hintmask 0101000110000000
          27 hmoveto
          -97 callsubr
          hintmask 0011000110000000
          18 callgsubr
          hintmask 1001000110000000
          -82 callgsubr
          hintmask 0101000110000000
          -25 callgsubr
          hintmask 0011000110000000
          165 callsubr
          hintmask 0101000110000000
          98 callgsubr
          hintmask 0101001110000000
          411 vmoveto
          hintmask 0101010110000000
          -38 callsubr
          hintmask 0100101110000000
          29 callsubr
          hintmask 0101001110000000
          -61 46 -67 74 -34 vhcurveto
          endchar
        </CharString>
        <CharString name="Omegaasperacute">
          73 callgsubr
          -270 249 callgsubr
          203 165 callgsubr
          hintmask 0101000011000000
          -93 386 callsubr
          hintmask 0100100111000000
          -35 callsubr
          -113 -254 rmoveto
          hintmask 0101001011000000
          -38 callsubr
          hintmask 0100010111000000
          -48 callgsubr
          hintmask 0100100111000000
          -61 46 -67 75 -34 vhcurveto
          hintmask 0101000011000000
          176 -411 rmoveto
          -97 callsubr
          hintmask 0011000011000000
          18 callgsubr
          hintmask 1001000011000000
          -82 callgsubr
          hintmask 0101000011000000
          -25 callgsubr
          hintmask 0011000011000000
          165 callsubr
          hintmask 0101000011000000
          98 callgsubr
          endchar
        </CharString>
</ttFont>
